<svg xmlns="http://www.w3.org/2000/svg" xmlns:v="https://svgstorm.com"
viewBox = "0 0 360 360"
width="360"
height="360">
<g fill="None" fill-opacity="0.0" stroke="#EAEEEF" stroke-opacity="1.00" stroke-width="0.3"><path d="
M 0.00 360.00 
L 360.00 360.00
L 360.00 0.00
L 0.00 0.00
L 0.00 360.00
M 193.00 47.00 
C 205.46 47.95 217.55 53.26 228.00 60.00
C 236.86 65.72 244.78 73.46 251.00 82.00
C 252.81 84.48 253.76 86.38 255.00 89.00
C 256.78 92.00 258.63 94.51 260.00 98.00
C 262.33 103.94 265.27 109.56 266.00 116.00
C 287.33 116.00 308.67 116.00 330.00 116.00
C 335.14 114.10 338.65 104.56 346.00 110.00
C 346.50 110.00 347.00 110.00 347.00 110.00
C 349.63 110.51 352.79 113.54 354.00 116.00
C 354.20 116.40 354.00 117.00 354.00 117.00
C 357.10 119.38 355.74 123.28 355.00 126.00
C 353.35 132.11 351.32 133.64 344.97 135.97 C 338.63 138.31 334.90 131.91 329.92 130.08 C 324.94 128.25 315.65 130.17 310.00 130.00 C 304.35 129.83 294.48 128.93 289.00 130.00 C 283.52 131.07 272.31 126.98 268.00 130.00
C 268.56 135.57 267.32 140.64 267.00 146.00
C 272.67 149.85 283.29 143.38 290.00 146.00 C 296.71 148.62 301.68 140.63 307.67 139.67 C 313.66 138.71 319.46 142.24 322.00 148.00
C 324.40 153.43 323.32 160.04 318.00 164.00
C 314.11 166.89 310.56 167.42 306.00 166.00
C 302.61 164.94 300.64 160.97 298.00 160.00
C 289.45 157.44 279.80 162.08 271.00 160.00 C 262.20 157.92 260.35 168.10 257.23 174.23 C 254.10 180.36 250.54 185.69 246.00 191.00
C 243.81 193.56 241.51 195.85 239.00 198.00
C 236.68 199.98 234.37 201.56 232.00 203.00
C 228.60 205.61 225.97 207.97 222.00 210.00
C 219.63 211.21 217.48 212.17 215.00 213.00
C 212.77 214.02 210.55 215.13 208.00 216.00
C 201.05 218.38 194.64 220.00 187.00 220.00
C 182.60 220.43 177.34 220.42 173.00 220.00
C 166.47 220.00 161.01 218.82 155.00 217.00
C 152.16 216.14 149.51 215.10 147.00 214.00
C 137.18 210.85 128.95 204.80 121.00 198.00
C 118.44 195.81 116.15 193.51 114.00 191.00
C 112.31 189.02 111.21 187.00 110.00 185.00
C 107.89 182.25 105.75 180.17 104.00 177.00
C 100.82 171.22 100.27 161.31 92.99 160.01 C 85.71 158.70 71.87 160.97 64.00 160.00
C 58.95 171.01 44.52 167.16 40.08 157.92 C 35.63 148.69 47.75 133.47 57.67 140.33 C 67.59 147.19 80.21 146.83 93.00 146.00
C 93.00 144.33 93.00 142.67 93.00 141.00
C 93.07 138.30 90.87 133.47 92.00 130.00
C 87.58 126.90 76.79 130.95 71.00 130.00 C 65.21 129.05 55.11 129.67 49.00 130.00 C 42.89 130.33 33.35 127.57 28.26 131.26 C 23.17 134.95 18.86 137.56 12.00 135.00
C 7.26 133.23 3.61 128.12 4.00 123.00
C 4.04 122.50 4.00 122.00 4.00 122.00
C 3.72 118.30 5.20 117.46 7.00 115.00
C 8.39 113.09 8.00 113.38 10.00 112.00
C 13.04 109.91 17.26 107.23 21.00 110.00
C 21.50 110.05 22.00 110.00 22.00 110.00
C 24.97 110.28 28.69 112.82 29.00 116.00
C 38.61 119.37 50.76 114.29 61.00 116.00 C 71.24 117.71 83.57 114.72 94.00 116.00
C 95.95 104.14 101.12 92.93 108.00 83.00
C 114.17 74.00 122.99 65.81 132.00 60.00
C 141.11 54.12 151.26 49.40 162.00 48.00
C 165.83 47.11 169.47 46.09 174.00 46.00
C 177.99 45.92 182.01 45.92 186.00 46.00
C 188.56 46.05 191.11 46.69 193.00 47.00
M 57.00 254.00 
C 54.98 256.02 50.05 255.13 48.00 254.00
C 43.53 251.53 42.00 244.18 37.00 242.00
C 37.00 246.00 37.00 250.00 37.00 254.00
C 35.73 255.82 31.34 255.34 30.00 254.00
C 26.15 250.15 30.81 239.99 29.00 235.00
C 39.83 231.12 42.73 243.26 50.00 247.00
C 50.00 243.00 50.00 239.00 50.00 235.00
C 62.05 231.19 57.97 247.80 57.00 254.00
M 86.00 254.00 
C 84.11 257.27 72.43 254.29 70.00 254.00
C 67.67 253.95 65.33 254.03 63.00 254.00
C 63.00 247.67 63.00 241.33 63.00 235.00
C 70.33 235.00 77.67 235.00 85.00 235.00
C 86.89 243.40 75.80 238.87 71.00 240.00
C 70.77 245.68 79.34 241.90 83.00 243.00
C 84.31 249.87 74.96 245.99 71.00 247.00
C 71.54 253.07 81.50 248.65 86.00 250.00
C 86.00 251.33 86.00 252.67 86.00 254.00
M 96.00 254.00 
C 94.06 254.91 91.57 255.37 89.00 255.00
C 88.95 252.78 91.29 251.01 93.00 250.00
C 94.58 248.65 96.32 247.14 98.00 246.00
C 96.91 241.37 91.18 239.13 89.00 235.00
C 94.47 233.80 99.41 236.16 102.00 241.00
C 105.92 237.74 109.12 233.26 115.00 235.00
C 112.46 238.30 109.31 241.56 106.00 244.00
C 108.38 247.80 112.68 250.24 115.00 254.00
C 110.20 254.76 105.17 253.75 103.00 249.00
C 99.85 248.96 98.70 253.02 96.00 254.00
M 126.00 236.00 
C 128.32 238.32 126.26 242.92 127.00 246.00
C 131.40 257.22 138.33 241.45 135.00 235.00
C 146.31 230.85 145.18 248.96 138.92 252.92 C 132.66 256.88 118.71 255.73 119.00 246.00
C 118.41 243.47 116.59 238.41 119.00 236.00
C 120.56 234.44 124.46 234.46 126.00 236.00
M 169.00 241.00 
C 164.10 242.19 159.34 238.86 155.00 241.00
C 160.88 241.11 174.00 245.67 167.25 252.25 C 160.49 258.82 148.96 254.97 147.00 248.00
C 152.55 246.42 156.02 251.43 161.00 249.00
C 155.38 248.61 142.25 243.82 149.25 237.25 C 156.25 230.67 165.77 235.29 169.00 241.00
M 196.00 254.00 
C 194.83 255.67 189.15 255.64 188.00 254.00
C 185.81 250.87 189.64 243.52 188.00 240.00
C 181.07 242.77 177.83 234.68 185.00 235.00 C 192.17 235.32 196.12 234.76 203.00 235.00
C 204.74 240.33 199.92 240.49 196.00 240.00
C 196.00 244.67 196.00 249.33 196.00 254.00
M 225.00 235.00 
C 240.30 238.17 231.31 260.60 215.78 254.22 C 200.25 247.84 208.74 231.63 225.00 235.00
M 255.00 235.00 
C 270.30 238.17 261.31 260.60 245.78 254.22 C 230.25 247.84 238.74 231.63 255.00 235.00
M 290.00 254.00 
C 288.72 256.22 269.40 256.00 268.00 254.00
C 265.02 249.75 270.23 239.77 268.00 235.00
C 278.57 231.86 275.84 243.54 276.00 250.00
C 280.67 250.00 285.33 250.00 290.00 250.00
C 290.00 251.33 290.00 252.67 290.00 254.00
M 316.00 241.00 
C 311.22 242.35 305.84 238.61 302.00 241.00
C 307.49 240.64 320.78 246.67 313.75 252.75 C 306.71 258.82 297.33 254.69 293.00 249.00
C 298.73 247.21 302.51 250.58 308.00 249.00
C 302.95 248.66 288.04 243.96 295.25 237.25 C 302.47 230.55 312.29 235.42 316.00 241.00
M 55.00 286.00 
C 55.00 280.33 55.00 274.67 55.00 269.00
C 72.23 263.11 71.50 290.68 55.00 286.00
M 74.00 285.00 
C 72.39 280.74 72.30 273.19 74.00 269.00
C 75.61 273.26 75.70 280.81 74.00 285.00
M 94.00 273.00 
C 88.50 266.93 77.67 271.66 81.33 280.67 C 84.99 289.68 99.54 277.98 88.00 277.00
C 94.02 274.92 95.33 280.76 94.00 285.00
C 91.28 282.12 87.02 287.74 82.78 284.22 C 78.53 280.71 77.97 275.40 81.26 271.26 C 84.55 267.12 92.49 268.12 94.00 273.00
M 100.00 285.00 
C 98.39 280.74 98.30 273.19 100.00 269.00
C 101.61 273.26 101.70 280.81 100.00 285.00
M 117.00 269.00 
C 108.20 268.89 114.27 280.21 111.00 285.00
C 107.79 280.02 113.76 269.00 105.00 269.00
C 109.00 269.00 113.00 269.00 117.00 269.00
M 134.00 285.00 
C 130.63 279.87 123.42 279.84 120.00 285.00
C 122.37 279.77 123.90 274.33 126.00 269.00
C 131.47 271.43 130.63 280.16 134.00 285.00
M 148.00 284.00 
C 145.57 286.13 141.18 284.47 138.00 285.00
C 138.65 279.84 136.69 273.34 139.00 269.00
C 141.74 274.80 136.22 287.68 148.00 284.00
M 162.00 279.00 
C 162.07 278.91 161.66 288.49 160.00 285.00
C 157.93 280.65 161.55 273.60 160.00 269.00
C 171.92 265.15 173.75 280.00 162.00 279.00
M 182.00 278.00 
C 182.97 280.37 184.75 282.39 185.00 285.00
C 181.00 280.22 176.72 274.53 176.00 285.00
C 173.75 280.58 175.61 274.18 175.00 269.00
C 181.88 265.62 190.96 274.83 182.00 278.00
M 202.00 269.00 
C 211.10 272.03 204.73 290.27 194.93 285.07 C 185.13 279.88 191.16 265.39 202.00 269.00
M 211.00 285.00 
C 211.00 279.67 211.00 274.33 211.00 269.00
C 227.90 262.75 227.99 291.46 211.00 285.00
M 229.00 281.00 
C 227.75 277.93 227.04 271.96 229.00 269.00
C 232.65 272.58 226.16 283.24 234.03 283.97 C 241.89 284.71 237.35 272.61 240.00 269.00
C 246.24 276.64 234.78 293.67 229.00 281.00
M 260.00 273.00 
C 255.08 268.81 247.23 268.80 247.01 277.01 C 246.79 285.21 255.25 285.16 260.00 281.00
C 256.43 288.57 246.02 286.06 245.03 277.97 C 244.03 269.89 255.96 264.66 260.00 273.00
M 275.00 269.00 
C 266.20 268.89 272.27 280.21 269.00 285.00
C 265.79 280.02 271.76 269.00 263.00 269.00
C 267.00 269.00 271.00 269.00 275.00 269.00
M 289.00 273.00 
C 280.17 267.38 279.71 274.13 288.23 277.77 C 296.75 281.41 277.61 292.06 279.00 281.00
C 285.44 287.73 292.48 279.52 281.98 277.02 C 271.47 274.53 289.76 261.61 289.00 273.00 Z"/>
</g>
<g fill="None" fill-opacity="0.0" stroke="#3F51D4" stroke-opacity="1.00" stroke-width="0.3"><path d="
M 162.00 48.00 
C 165.87 47.50 170.66 46.32 174.00 46.00
C 169.47 46.09 165.83 47.11 162.00 48.00 Z"/>
</g>
<g fill="None" fill-opacity="0.0" stroke="#003AF7" stroke-opacity="1.00" stroke-width="0.3"><path d="
M 162.00 48.00 
C 151.26 49.40 141.11 54.12 132.00 60.00
C 123.70 66.75 115.09 74.86 108.00 83.00
C 101.12 92.93 95.95 104.14 94.00 116.00
C 83.57 114.72 71.24 117.71 61.00 116.00 C 50.76 114.29 38.61 119.37 29.00 116.00
C 27.09 115.33 23.68 111.35 22.00 110.00
C 22.00 110.00 21.50 110.05 21.00 110.00
C 17.06 109.63 13.38 110.25 10.00 112.00
C 8.00 113.38 8.39 113.09 7.00 115.00
C 5.72 117.34 5.11 119.97 4.00 122.00
C 4.00 122.00 4.04 122.50 4.00 123.00
C 6.14 126.92 7.27 132.71 12.00 135.00
C 18.86 137.56 23.17 134.95 28.26 131.26 C 33.35 127.57 42.89 130.33 49.00 130.00 C 55.11 129.67 65.21 129.05 71.00 130.00 C 76.79 130.95 87.58 126.90 92.00 130.00
C 93.94 131.36 93.29 138.63 93.00 141.00
C 93.00 142.67 93.00 144.33 93.00 146.00
C 80.21 146.83 67.59 147.19 57.67 140.33 C 47.75 133.47 35.63 148.69 40.08 157.92 C 44.52 167.16 58.95 171.01 64.00 160.00
C 71.87 160.97 85.71 158.70 92.99 160.01 C 100.27 161.31 100.82 171.22 104.00 177.00
C 105.81 179.62 108.25 182.11 110.00 185.00
C 111.21 187.00 112.31 189.02 114.00 191.00
C 116.55 193.40 118.57 195.37 121.00 198.00
C 128.95 204.80 137.18 210.85 147.00 214.00
C 149.77 214.89 152.53 215.97 155.00 217.00
C 161.01 218.82 166.47 220.00 173.00 220.00
C 177.67 220.00 182.33 220.00 187.00 220.00
C 194.64 220.00 201.05 218.38 208.00 216.00
C 210.25 214.95 212.42 213.86 215.00 213.00
C 217.48 212.17 219.63 211.21 222.00 210.00
C 225.24 207.93 228.52 205.11 232.00 203.00
C 234.37 201.56 236.68 199.98 239.00 198.00
C 241.26 195.74 243.79 193.21 246.00 191.00
C 250.54 185.69 254.10 180.36 257.23 174.23 C 260.35 168.10 262.20 157.92 271.00 160.00 C 279.80 162.08 289.45 157.44 298.00 160.00
C 300.92 160.87 303.32 164.93 306.00 166.00
C 310.56 167.42 314.11 166.89 318.00 164.00
C 321.55 160.49 323.14 153.15 322.00 148.00
C 319.46 142.24 313.66 138.71 307.67 139.67 C 301.68 140.63 296.71 148.62 290.00 146.00 C 283.29 143.38 272.67 149.85 267.00 146.00
C 265.42 144.92 266.47 131.07 268.00 130.00
C 272.31 126.98 283.52 131.07 289.00 130.00 C 294.48 128.93 304.35 129.83 310.00 130.00 C 315.65 130.17 324.94 128.25 329.92 130.08 C 334.90 131.91 338.63 138.31 344.97 135.97 C 351.32 133.64 353.35 132.11 355.00 126.00
C 355.37 122.96 354.98 119.75 354.00 117.00
C 354.00 117.00 354.20 116.40 354.00 116.00
C 351.49 114.25 349.36 111.51 347.00 110.00
C 347.00 110.00 346.50 110.00 346.00 110.00
C 337.84 110.00 336.50 114.05 330.00 116.00
C 308.67 116.00 287.33 116.00 266.00 116.00
C 265.27 109.56 262.33 103.94 260.00 98.00
C 258.47 95.14 256.48 92.13 255.00 89.00
C 253.76 86.38 252.81 84.48 251.00 82.00
C 243.88 74.30 235.99 66.50 228.00 60.00
C 217.55 53.26 205.46 47.95 193.00 47.00
C 190.72 46.83 187.61 46.16 186.00 46.00
C 182.01 45.92 177.99 45.92 174.00 46.00
C 170.66 46.32 165.87 47.50 162.00 48.00
M 192.00 56.00 
C 193.44 56.48 195.76 57.19 197.00 58.00
C 203.27 62.11 203.46 70.94 199.00 76.00
C 196.94 78.34 195.02 79.95 192.00 81.00
C 189.24 81.96 187.71 81.94 185.00 81.00
C 181.88 79.92 180.23 78.10 178.00 76.00
C 175.33 74.13 173.40 73.76 170.00 74.00
C 169.50 74.03 168.50 73.99 168.00 74.00
C 165.87 74.74 163.54 75.49 161.00 76.00
C 154.05 77.39 147.74 80.73 142.00 85.00
C 138.20 88.31 133.19 93.21 130.00 97.00
C 128.99 98.42 128.70 99.57 128.00 101.00
C 126.48 104.10 125.05 107.45 123.00 110.00
C 122.89 110.47 123.00 111.00 123.00 111.00
C 127.56 114.68 134.40 110.46 140.00 112.00 C 145.60 113.54 151.93 110.14 158.00 112.00 C 164.07 113.86 165.71 108.29 170.00 106.00
C 172.65 104.58 176.87 103.78 180.00 104.00
C 184.48 104.31 188.63 107.79 190.00 112.00
C 195.11 127.73 172.79 137.52 166.00 122.00
C 150.33 122.00 134.67 122.00 119.00 122.00
C 118.97 133.02 118.00 144.30 123.00 154.00
C 124.44 156.85 126.47 159.94 128.00 163.00
C 129.61 166.23 130.93 170.10 135.00 171.00
C 139.53 171.58 141.65 169.17 146.00 173.00
C 163.64 188.53 133.33 208.14 126.00 187.00
C 125.03 184.21 125.74 182.52 126.00 180.00
C 125.91 171.66 114.55 160.55 112.00 151.00
C 111.03 148.62 110.10 147.03 110.00 144.00
C 109.97 143.00 110.00 142.00 110.00 141.00
C 109.36 138.09 108.72 134.57 109.00 131.00
C 109.68 122.49 111.64 114.10 114.00 106.00
C 114.89 102.95 116.36 101.39 118.00 99.00
C 119.82 95.70 121.95 91.93 124.00 89.00
C 126.56 85.34 130.42 81.55 134.00 79.00
C 139.99 74.72 144.76 72.89 151.22 69.22 C 157.68 65.56 167.11 66.33 174.00 64.00
C 177.60 62.45 178.73 57.54 183.00 56.00
C 183.44 55.84 184.00 56.00 184.00 56.00
C 186.50 54.15 189.58 55.20 192.00 56.00
M 250.00 125.00 
C 251.33 131.53 251.40 136.67 250.00 143.00
C 249.24 150.43 246.67 158.12 244.00 165.00
C 242.79 168.11 240.89 169.62 239.00 172.00
C 238.17 173.31 237.71 174.85 237.00 176.00
C 234.28 180.40 228.34 186.31 224.00 189.00
C 222.92 189.67 221.22 190.22 220.00 191.00
C 216.14 194.07 212.95 196.56 208.00 198.00
C 202.21 199.68 196.06 201.25 190.00 202.00
C 188.54 202.32 184.47 202.81 183.00 204.00
C 182.86 204.46 183.00 205.00 183.00 205.00
C 181.25 208.59 177.68 210.62 174.00 211.00
C 172.20 211.19 169.79 211.27 168.00 211.00
C 164.90 210.53 161.40 207.95 160.00 205.00
C 159.63 204.21 159.36 202.91 159.00 202.00
C 157.84 199.11 157.93 196.84 159.00 194.00
C 161.84 186.48 170.69 182.81 178.00 186.00
C 180.67 187.17 183.42 190.74 185.00 193.00
C 185.46 193.13 186.00 193.00 186.00 193.00
C 187.99 191.53 190.41 192.24 193.00 192.00
C 199.57 191.40 205.24 189.18 211.00 186.00
C 213.92 183.98 217.03 181.27 220.00 179.00
C 220.32 178.76 221.00 179.00 221.00 179.00
C 224.95 173.34 230.25 168.42 234.00 163.00
C 235.59 160.12 237.21 157.16 238.00 154.00
C 223.33 154.00 208.67 154.00 194.00 154.00
C 190.81 165.00 173.63 164.44 170.00 154.00
C 168.52 151.23 166.67 147.54 170.00 145.00
C 170.18 144.58 170.00 144.00 170.00 144.00
C 170.64 140.71 174.06 138.01 177.00 137.00
C 181.04 135.62 186.19 135.97 190.00 138.00
C 194.76 140.54 195.37 145.37 202.00 144.00 C 208.63 142.63 214.51 144.71 221.00 144.00 C 227.49 143.29 233.55 144.54 240.00 144.00
C 240.11 143.00 239.53 141.27 241.00 141.00
C 242.57 133.93 240.76 126.19 239.67 119.33 C 238.58 112.47 235.36 110.26 232.70 103.30 C 230.03 96.35 225.29 96.35 219.00 96.00
C 215.35 95.79 211.69 93.41 210.00 90.00
C 204.93 79.74 213.62 66.26 225.67 70.33 C 237.72 74.40 231.30 88.23 238.30 95.70 C 245.30 103.16 249.14 115.26 250.00 125.00
M 21.00 120.00 
C 24.39 127.80 10.62 127.78 14.00 120.00
C 15.24 117.14 19.77 117.18 21.00 120.00
M 344.00 119.00 
C 348.02 119.96 347.30 127.59 342.30 126.64 C 337.31 125.70 338.72 117.74 344.00 119.00
M 314.00 151.00 
C 315.18 157.61 304.80 157.04 306.00 151.00
C 306.84 146.77 313.28 147.00 314.00 151.00
M 54.00 149.00 
C 59.02 149.90 56.86 158.46 51.99 156.99 C 47.13 155.52 49.60 148.21 54.00 149.00 Z"/>
</g>
<g fill="None" fill-opacity="0.0" stroke="#3F51D4" stroke-opacity="1.00" stroke-width="0.3"><path d="
M 193.00 47.00 
C 191.11 46.69 188.56 46.05 186.00 46.00
C 187.61 46.16 190.72 46.83 193.00 47.00 Z"/>
</g>
<g fill="None" fill-opacity="0.0" stroke="#3F51D4" stroke-opacity="1.00" stroke-width="0.3"><path d="
M 184.00 56.00 
C 186.51 56.00 189.54 55.53 192.00 56.00
C 189.58 55.20 186.50 54.15 184.00 56.00 Z"/>
</g>
<g fill="None" fill-opacity="0.0" stroke="#3F51D4" stroke-opacity="1.00" stroke-width="0.3"><path d="
M 174.00 64.00 
C 177.41 62.85 180.50 58.61 183.00 56.00
C 178.73 57.54 177.60 62.45 174.00 64.00 Z"/>
</g>
<g fill="None" fill-opacity="0.0" stroke="#EAEEEF" stroke-opacity="1.00" stroke-width="0.3"><path d="
M 174.00 64.00 
C 167.11 66.33 157.68 65.56 151.22 69.22 C 144.76 72.89 139.99 74.72 134.00 79.00
C 130.93 81.57 126.49 85.96 124.00 89.00
C 121.95 91.93 119.82 95.70 118.00 99.00
C 116.80 101.17 114.83 103.98 114.00 106.00
C 111.64 114.10 109.68 122.49 109.00 131.00
C 109.04 133.50 110.00 137.77 110.00 141.00
C 110.00 142.00 109.97 143.00 110.00 144.00
C 110.39 145.83 111.42 148.82 112.00 151.00
C 114.55 160.55 125.91 171.66 126.00 180.00
C 126.02 182.21 125.59 184.84 126.00 187.00
C 133.33 208.14 163.64 188.53 146.00 173.00
C 142.25 170.53 139.13 171.91 135.00 171.00
C 130.93 170.10 129.61 166.23 128.00 163.00
C 126.11 159.98 124.32 157.57 123.00 154.00
C 118.00 144.30 118.97 133.02 119.00 122.00
C 134.67 122.00 150.33 122.00 166.00 122.00
C 172.79 137.52 195.11 127.73 190.00 112.00
C 188.70 108.92 182.99 104.46 180.00 104.00
C 176.87 103.78 172.65 104.58 170.00 106.00
C 166.10 108.68 163.99 114.72 158.00 113.00 C 152.01 111.28 143.60 113.46 139.00 113.00 C 134.40 112.54 121.03 113.49 123.00 111.00
C 123.00 111.00 122.89 110.47 123.00 110.00
C 123.88 106.26 126.17 103.95 128.00 101.00
C 128.70 99.57 128.99 98.42 130.00 97.00
C 133.09 92.65 137.78 88.14 142.00 85.00
C 147.74 80.73 154.05 77.39 161.00 76.00
C 163.37 75.23 164.98 74.08 168.00 74.00
C 168.50 73.99 169.50 74.03 170.00 74.00
C 173.89 72.15 175.14 73.30 178.00 76.00
C 180.23 78.10 181.88 79.92 185.00 81.00
C 186.85 81.36 190.15 81.36 192.00 81.00
C 195.02 79.95 196.94 78.34 199.00 76.00
C 202.27 71.04 201.87 62.00 197.00 58.00
C 195.76 57.19 193.44 56.48 192.00 56.00
C 189.54 55.53 186.51 56.00 184.00 56.00
C 184.00 56.00 183.44 55.84 183.00 56.00
C 180.50 58.61 177.41 62.85 174.00 64.00
M 187.00 72.00 
C 183.47 70.64 184.53 65.44 188.00 65.00
C 194.27 64.21 192.72 74.20 187.00 72.00
M 176.00 120.00 
C 174.42 118.98 173.66 118.09 174.00 116.00
C 175.99 103.73 187.84 127.67 176.00 120.00
M 141.00 180.00 
C 144.10 181.39 142.21 188.91 137.75 187.20 C 133.30 185.48 134.93 177.28 141.00 180.00 Z"/>
</g>
<g fill="None" fill-opacity="0.0" stroke="#3F51D4" stroke-opacity="1.00" stroke-width="0.3"><path d="
M 199.00 76.00 
C 203.46 70.94 203.27 62.11 197.00 58.00
C 201.87 62.00 202.27 71.04 199.00 76.00 Z"/>
</g>
<g fill="None" fill-opacity="0.0" stroke="#3F51D4" stroke-opacity="1.00" stroke-width="0.3"><path d="
M 108.00 83.00 
C 115.09 74.86 123.70 66.75 132.00 60.00
C 122.99 65.81 114.17 74.00 108.00 83.00 Z"/>
</g>
<g fill="None" fill-opacity="0.0" stroke="#3F51D4" stroke-opacity="1.00" stroke-width="0.3"><path d="
M 251.00 82.00 
C 244.78 73.46 236.86 65.72 228.00 60.00
C 235.99 66.50 243.88 74.30 251.00 82.00 Z"/>
</g>
<g fill="None" fill-opacity="0.0" stroke="#3F51D4" stroke-opacity="1.00" stroke-width="0.3"><path d="
M 187.00 72.00 
C 184.76 70.62 186.00 65.63 188.00 65.00
C 184.53 65.44 183.47 70.64 187.00 72.00 Z"/>
</g>
<g fill="None" fill-opacity="0.0" stroke="#003AF7" stroke-opacity="1.00" stroke-width="0.3"><path d="
M 187.00 72.00 
C 192.72 74.20 194.27 64.21 188.00 65.00
C 186.00 65.63 184.76 70.62 187.00 72.00 Z"/>
</g>
<g fill="None" fill-opacity="0.0" stroke="#EAEEEF" stroke-opacity="1.00" stroke-width="0.3"><path d="
M 210.00 90.00 
C 211.28 92.18 216.99 95.72 219.00 96.00
C 225.29 96.35 230.03 96.35 232.70 103.30 C 235.36 110.26 238.58 112.47 239.67 119.33 C 240.76 126.19 242.57 133.93 241.00 141.00
C 239.31 148.61 231.72 143.36 225.00 145.00 C 218.28 146.64 211.41 142.67 204.00 145.00 C 196.59 147.33 194.63 141.17 190.00 138.00
C 186.19 135.97 181.04 135.62 177.00 137.00
C 174.63 138.05 171.32 141.93 170.00 144.00
C 170.00 144.00 170.18 144.58 170.00 145.00
C 168.82 147.72 168.96 151.18 170.00 154.00
C 173.63 164.44 190.81 165.00 194.00 154.00
C 208.67 154.00 223.33 154.00 238.00 154.00
C 237.21 157.16 235.59 160.12 234.00 163.00
C 231.21 168.05 226.50 176.31 221.00 179.00
C 221.00 179.00 220.32 178.76 220.00 179.00
C 217.63 182.39 214.47 184.09 211.00 186.00
C 205.24 189.18 199.57 191.40 193.00 192.00
C 191.02 192.35 188.65 193.25 186.00 193.00
C 186.00 193.00 185.46 193.13 185.00 193.00
C 181.97 192.11 180.77 187.45 178.00 186.00
C 170.69 182.81 161.84 186.48 159.00 194.00
C 158.54 196.01 158.60 199.97 159.00 202.00
C 159.36 202.91 159.63 204.21 160.00 205.00
C 161.08 206.72 166.37 210.64 168.00 211.00
C 169.79 211.27 172.20 211.19 174.00 211.00
C 177.20 210.41 180.23 206.93 183.00 205.00
C 183.00 205.00 182.86 204.46 183.00 204.00
C 183.90 200.97 187.69 202.29 190.00 202.00
C 196.06 201.25 202.21 199.68 208.00 198.00
C 211.84 196.42 216.31 193.34 220.00 191.00
C 221.22 190.22 222.92 189.67 224.00 189.00
C 227.78 186.22 234.26 179.73 237.00 176.00
C 237.71 174.85 238.17 173.31 239.00 172.00
C 240.42 169.75 242.97 167.08 244.00 165.00
C 246.67 158.12 249.24 150.43 250.00 143.00
C 250.63 136.84 250.56 131.32 250.00 125.00
C 249.14 115.26 245.30 103.16 238.30 95.70 C 231.30 88.23 237.72 74.40 225.67 70.33 C 213.62 66.26 204.93 79.74 210.00 90.00
M 224.00 79.00 
C 227.71 81.42 223.30 88.98 219.25 85.74 C 215.21 82.50 219.91 76.33 224.00 79.00
M 184.00 145.00 
C 188.77 146.82 185.06 155.20 180.33 152.67 C 175.59 150.13 180.32 143.60 184.00 145.00
M 173.00 194.00 
C 176.83 195.46 174.74 203.44 170.32 201.66 C 165.91 199.88 168.68 192.35 173.00 194.00 Z"/>
</g>
<g fill="None" fill-opacity="0.0" stroke="#3F51D4" stroke-opacity="1.00" stroke-width="0.3"><path d="
M 170.00 74.00 
C 173.40 73.76 175.33 74.13 178.00 76.00
C 175.14 73.30 173.89 72.15 170.00 74.00 Z"/>
</g>
<g fill="None" fill-opacity="0.0" stroke="#3F51D4" stroke-opacity="1.00" stroke-width="0.3"><path d="
M 161.00 76.00 
C 163.54 75.49 165.87 74.74 168.00 74.00
C 164.98 74.08 163.37 75.23 161.00 76.00 Z"/>
</g>
<g fill="None" fill-opacity="0.0" stroke="#3F51D4" stroke-opacity="1.00" stroke-width="0.3"><path d="
M 124.00 89.00 
C 126.49 85.96 130.93 81.57 134.00 79.00
C 130.42 81.55 126.56 85.34 124.00 89.00 Z"/>
</g>
<g fill="None" fill-opacity="0.0" stroke="#3F51D4" stroke-opacity="1.00" stroke-width="0.3"><path d="
M 224.00 79.00 
C 219.91 76.33 215.21 82.50 219.25 85.74 C 223.30 88.98 227.71 81.42 224.00 79.00 Z"/>
</g>
<g fill="None" fill-opacity="0.0" stroke="#3F51D4" stroke-opacity="1.00" stroke-width="0.3"><path d="
M 192.00 81.00 
C 190.15 81.36 186.85 81.36 185.00 81.00
C 187.71 81.94 189.24 81.96 192.00 81.00 Z"/>
</g>
<g fill="None" fill-opacity="0.0" stroke="#3F51D4" stroke-opacity="1.00" stroke-width="0.3"><path d="
M 130.00 97.00 
C 133.19 93.21 138.20 88.31 142.00 85.00
C 137.78 88.14 133.09 92.65 130.00 97.00 Z"/>
</g>
<g fill="None" fill-opacity="0.0" stroke="#3F51D4" stroke-opacity="1.00" stroke-width="0.3"><path d="
M 260.00 98.00 
C 258.63 94.51 256.78 92.00 255.00 89.00
C 256.48 92.13 258.47 95.14 260.00 98.00 Z"/>
</g>
<g fill="None" fill-opacity="0.0" stroke="#3F51D4" stroke-opacity="1.00" stroke-width="0.3"><path d="
M 219.00 96.00 
C 216.99 95.72 211.28 92.18 210.00 90.00
C 211.69 93.41 215.35 95.79 219.00 96.00 Z"/>
</g>
<g fill="None" fill-opacity="0.0" stroke="#3F51D4" stroke-opacity="1.00" stroke-width="0.3"><path d="
M 114.00 106.00 
C 114.83 103.98 116.80 101.17 118.00 99.00
C 116.36 101.39 114.89 102.95 114.00 106.00 Z"/>
</g>
<g fill="None" fill-opacity="0.0" stroke="#3F51D4" stroke-opacity="1.00" stroke-width="0.3"><path d="
M 123.00 110.00 
C 125.05 107.45 126.48 104.10 128.00 101.00
C 126.17 103.95 123.88 106.26 123.00 110.00 Z"/>
</g>
<g fill="None" fill-opacity="0.0" stroke="#3F51D4" stroke-opacity="1.00" stroke-width="0.3"><path d="
M 190.00 112.00 
C 188.63 107.79 184.48 104.31 180.00 104.00
C 182.99 104.46 188.70 108.92 190.00 112.00 Z"/>
</g>
<g fill="None" fill-opacity="0.0" stroke="#3F51D4" stroke-opacity="1.00" stroke-width="0.3"><path d="
M 123.00 111.00 
C 121.03 113.49 134.40 112.54 139.00 113.00 C 143.60 113.46 152.01 111.28 158.00 113.00 C 163.99 114.72 166.10 108.68 170.00 106.00
C 165.71 108.29 164.07 113.86 158.00 112.00 C 151.93 110.14 145.60 113.54 140.00 112.00 C 134.40 110.46 127.56 114.68 123.00 111.00 Z"/>
</g>
<g fill="None" fill-opacity="0.0" stroke="#3F51D4" stroke-opacity="1.00" stroke-width="0.3"><path d="
M 10.00 112.00 
C 13.38 110.25 17.06 109.63 21.00 110.00
C 17.26 107.23 13.04 109.91 10.00 112.00 Z"/>
</g>
<g fill="None" fill-opacity="0.0" stroke="#3F51D4" stroke-opacity="1.00" stroke-width="0.3"><path d="
M 330.00 116.00 
C 336.50 114.05 337.84 110.00 346.00 110.00
C 338.65 104.56 335.14 114.10 330.00 116.00 Z"/>
</g>
<g fill="None" fill-opacity="0.0" stroke="#3F51D4" stroke-opacity="1.00" stroke-width="0.3"><path d="
M 29.00 116.00 
C 28.69 112.82 24.97 110.28 22.00 110.00
C 23.68 111.35 27.09 115.33 29.00 116.00 Z"/>
</g>
<g fill="None" fill-opacity="0.0" stroke="#3F51D4" stroke-opacity="1.00" stroke-width="0.3"><path d="
M 354.00 116.00 
C 352.79 113.54 349.63 110.51 347.00 110.00
C 349.36 111.51 351.49 114.25 354.00 116.00 Z"/>
</g>
<g fill="None" fill-opacity="0.0" stroke="#3F51D4" stroke-opacity="1.00" stroke-width="0.3"><path d="
M 174.00 116.00 
C 175.33 111.35 183.06 115.89 180.00 120.00
C 178.67 120.00 177.33 120.00 176.00 120.00
C 187.84 127.67 175.99 103.73 174.00 116.00 Z"/>
</g>
<g fill="None" fill-opacity="0.0" stroke="#003AF7" stroke-opacity="1.00" stroke-width="0.3"><path d="
M 174.00 116.00 
C 173.66 118.09 174.42 118.98 176.00 120.00
C 177.33 120.00 178.67 120.00 180.00 120.00
C 183.06 115.89 175.33 111.35 174.00 116.00 Z"/>
</g>
<g fill="None" fill-opacity="0.0" stroke="#3F51D4" stroke-opacity="1.00" stroke-width="0.3"><path d="
M 4.00 122.00 
C 5.11 119.97 5.72 117.34 7.00 115.00
C 5.20 117.46 3.72 118.30 4.00 122.00 Z"/>
</g>
<g fill="None" fill-opacity="0.0" stroke="#3F51D4" stroke-opacity="1.00" stroke-width="0.3"><path d="
M 355.00 126.00 
C 355.74 123.28 357.10 119.38 354.00 117.00
C 354.98 119.75 355.37 122.96 355.00 126.00 Z"/>
</g>
<g fill="None" fill-opacity="0.0" stroke="#3F51D4" stroke-opacity="1.00" stroke-width="0.3"><path d="
M 14.00 120.00 
C 15.00 118.47 20.02 118.50 21.00 120.00
C 19.77 117.18 15.24 117.14 14.00 120.00 Z"/>
</g>
<g fill="None" fill-opacity="0.0" stroke="#EAEEEF" stroke-opacity="1.00" stroke-width="0.3"><path d="
M 14.00 120.00 
C 10.62 127.78 24.39 127.80 21.00 120.00
C 20.02 118.50 15.00 118.47 14.00 120.00 Z"/>
</g>
<g fill="None" fill-opacity="0.0" stroke="#EAEEEF" stroke-opacity="1.00" stroke-width="0.3"><path d="
M 344.00 119.00 
C 338.72 117.74 337.31 125.70 342.30 126.64 C 347.30 127.59 348.02 119.96 344.00 119.00 Z"/>
</g>
<g fill="None" fill-opacity="0.0" stroke="#3F51D4" stroke-opacity="1.00" stroke-width="0.3"><path d="
M 12.00 135.00 
C 7.27 132.71 6.14 126.92 4.00 123.00
C 3.61 128.12 7.26 133.23 12.00 135.00 Z"/>
</g>
<g fill="None" fill-opacity="0.0" stroke="#3F51D4" stroke-opacity="1.00" stroke-width="0.3"><path d="
M 250.00 143.00 
C 251.40 136.67 251.33 131.53 250.00 125.00
C 250.56 131.32 250.63 136.84 250.00 143.00 Z"/>
</g>
<g fill="None" fill-opacity="0.0" stroke="#3F51D4" stroke-opacity="1.00" stroke-width="0.3"><path d="
M 93.00 141.00 
C 93.29 138.63 93.94 131.36 92.00 130.00
C 90.87 133.47 93.07 138.30 93.00 141.00 Z"/>
</g>
<g fill="None" fill-opacity="0.0" stroke="#3F51D4" stroke-opacity="1.00" stroke-width="0.3"><path d="
M 267.00 146.00 
C 267.32 140.64 268.56 135.57 268.00 130.00
C 266.47 131.07 265.42 144.92 267.00 146.00 Z"/>
</g>
<g fill="None" fill-opacity="0.0" stroke="#3F51D4" stroke-opacity="1.00" stroke-width="0.3"><path d="
M 110.00 141.00 
C 110.00 137.77 109.04 133.50 109.00 131.00
C 108.72 134.57 109.36 138.09 110.00 141.00 Z"/>
</g>
<g fill="None" fill-opacity="0.0" stroke="#3F51D4" stroke-opacity="1.00" stroke-width="0.3"><path d="
M 170.00 144.00 
C 171.32 141.93 174.63 138.05 177.00 137.00
C 174.06 138.01 170.64 140.71 170.00 144.00 Z"/>
</g>
<g fill="None" fill-opacity="0.0" stroke="#3F51D4" stroke-opacity="1.00" stroke-width="0.3"><path d="
M 241.00 141.00 
C 239.53 141.27 240.11 143.00 240.00 144.00
C 233.55 144.54 227.49 143.29 221.00 144.00 C 214.51 144.71 208.63 142.63 202.00 144.00 C 195.37 145.37 194.76 140.54 190.00 138.00
C 194.63 141.17 196.59 147.33 204.00 145.00 C 211.41 142.67 218.28 146.64 225.00 145.00 C 231.72 143.36 239.31 148.61 241.00 141.00 Z"/>
</g>
<g fill="None" fill-opacity="0.0" stroke="#3F51D4" stroke-opacity="1.00" stroke-width="0.3"><path d="
M 112.00 151.00 
C 111.42 148.82 110.39 145.83 110.00 144.00
C 110.10 147.03 111.03 148.62 112.00 151.00 Z"/>
</g>
<g fill="None" fill-opacity="0.0" stroke="#3F51D4" stroke-opacity="1.00" stroke-width="0.3"><path d="
M 170.00 154.00 
C 168.96 151.18 168.82 147.72 170.00 145.00
C 166.67 147.54 168.52 151.23 170.00 154.00 Z"/>
</g>
<g fill="None" fill-opacity="0.0" stroke="#3F51D4" stroke-opacity="1.00" stroke-width="0.3"><path d="
M 184.00 145.00 
C 180.32 143.60 175.59 150.13 180.33 152.67 C 185.06 155.20 188.77 146.82 184.00 145.00 Z"/>
</g>
<g fill="None" fill-opacity="0.0" stroke="#3F51D4" stroke-opacity="1.00" stroke-width="0.3"><path d="
M 306.00 151.00 
C 307.09 148.07 313.08 148.46 314.00 151.00
C 313.28 147.00 306.84 146.77 306.00 151.00 Z"/>
</g>
<g fill="None" fill-opacity="0.0" stroke="#3F51D4" stroke-opacity="1.00" stroke-width="0.3"><path d="
M 318.00 164.00 
C 323.32 160.04 324.40 153.43 322.00 148.00
C 323.14 153.15 321.55 160.49 318.00 164.00 Z"/>
</g>
<g fill="None" fill-opacity="0.0" stroke="#EAEEEF" stroke-opacity="1.00" stroke-width="0.3"><path d="
M 54.00 149.00 
C 49.60 148.21 47.13 155.52 51.99 156.99 C 56.86 158.46 59.02 149.90 54.00 149.00 Z"/>
</g>
<g fill="None" fill-opacity="0.0" stroke="#EAEEEF" stroke-opacity="1.00" stroke-width="0.3"><path d="
M 306.00 151.00 
C 304.80 157.04 315.18 157.61 314.00 151.00
C 313.08 148.46 307.09 148.07 306.00 151.00 Z"/>
</g>
<g fill="None" fill-opacity="0.0" stroke="#3F51D4" stroke-opacity="1.00" stroke-width="0.3"><path d="
M 128.00 163.00 
C 126.47 159.94 124.44 156.85 123.00 154.00
C 124.32 157.57 126.11 159.98 128.00 163.00 Z"/>
</g>
<g fill="None" fill-opacity="0.0" stroke="#3F51D4" stroke-opacity="1.00" stroke-width="0.3"><path d="
M 306.00 166.00 
C 303.32 164.93 300.92 160.87 298.00 160.00
C 300.64 160.97 302.61 164.94 306.00 166.00 Z"/>
</g>
<g fill="None" fill-opacity="0.0" stroke="#3F51D4" stroke-opacity="1.00" stroke-width="0.3"><path d="
M 221.00 179.00 
C 226.50 176.31 231.21 168.05 234.00 163.00
C 230.25 168.42 224.95 173.34 221.00 179.00 Z"/>
</g>
<g fill="None" fill-opacity="0.0" stroke="#3F51D4" stroke-opacity="1.00" stroke-width="0.3"><path d="
M 239.00 172.00 
C 240.89 169.62 242.79 168.11 244.00 165.00
C 242.97 167.08 240.42 169.75 239.00 172.00 Z"/>
</g>
<g fill="None" fill-opacity="0.0" stroke="#3F51D4" stroke-opacity="1.00" stroke-width="0.3"><path d="
M 135.00 171.00 
C 139.13 171.91 142.25 170.53 146.00 173.00
C 141.65 169.17 139.53 171.58 135.00 171.00 Z"/>
</g>
<g fill="None" fill-opacity="0.0" stroke="#3F51D4" stroke-opacity="1.00" stroke-width="0.3"><path d="
M 224.00 189.00 
C 228.34 186.31 234.28 180.40 237.00 176.00
C 234.26 179.73 227.78 186.22 224.00 189.00 Z"/>
</g>
<g fill="None" fill-opacity="0.0" stroke="#3F51D4" stroke-opacity="1.00" stroke-width="0.3"><path d="
M 110.00 185.00 
C 108.25 182.11 105.81 179.62 104.00 177.00
C 105.75 180.17 107.89 182.25 110.00 185.00 Z"/>
</g>
<g fill="None" fill-opacity="0.0" stroke="#3F51D4" stroke-opacity="1.00" stroke-width="0.3"><path d="
M 211.00 186.00 
C 214.47 184.09 217.63 182.39 220.00 179.00
C 217.03 181.27 213.92 183.98 211.00 186.00 Z"/>
</g>
<g fill="None" fill-opacity="0.0" stroke="#3F51D4" stroke-opacity="1.00" stroke-width="0.3"><path d="
M 126.00 187.00 
C 125.59 184.84 126.02 182.21 126.00 180.00
C 125.74 182.52 125.03 184.21 126.00 187.00 Z"/>
</g>
<g fill="None" fill-opacity="0.0" stroke="#3F51D4" stroke-opacity="1.00" stroke-width="0.3"><path d="
M 141.00 180.00 
C 134.93 177.28 133.30 185.48 137.75 187.20 C 142.21 188.91 144.10 181.39 141.00 180.00 Z"/>
</g>
<g fill="None" fill-opacity="0.0" stroke="#3F51D4" stroke-opacity="1.00" stroke-width="0.3"><path d="
M 185.00 193.00 
C 183.42 190.74 180.67 187.17 178.00 186.00
C 180.77 187.45 181.97 192.11 185.00 193.00 Z"/>
</g>
<g fill="None" fill-opacity="0.0" stroke="#3F51D4" stroke-opacity="1.00" stroke-width="0.3"><path d="
M 121.00 198.00 
C 118.57 195.37 116.55 193.40 114.00 191.00
C 116.15 193.51 118.44 195.81 121.00 198.00 Z"/>
</g>
<g fill="None" fill-opacity="0.0" stroke="#3F51D4" stroke-opacity="1.00" stroke-width="0.3"><path d="
M 208.00 198.00 
C 212.95 196.56 216.14 194.07 220.00 191.00
C 216.31 193.34 211.84 196.42 208.00 198.00 Z"/>
</g>
<g fill="None" fill-opacity="0.0" stroke="#3F51D4" stroke-opacity="1.00" stroke-width="0.3"><path d="
M 239.00 198.00 
C 241.51 195.85 243.81 193.56 246.00 191.00
C 243.79 193.21 241.26 195.74 239.00 198.00 Z"/>
</g>
<g fill="None" fill-opacity="0.0" stroke="#3F51D4" stroke-opacity="1.00" stroke-width="0.3"><path d="
M 186.00 193.00 
C 188.65 193.25 191.02 192.35 193.00 192.00
C 190.41 192.24 187.99 191.53 186.00 193.00 Z"/>
</g>
<g fill="None" fill-opacity="0.0" stroke="#3F51D4" stroke-opacity="1.00" stroke-width="0.3"><path d="
M 159.00 202.00 
C 158.60 199.97 158.54 196.01 159.00 194.00
C 157.93 196.84 157.84 199.11 159.00 202.00 Z"/>
</g>
<g fill="None" fill-opacity="0.0" stroke="#003AF7" stroke-opacity="1.00" stroke-width="0.3"><path d="
M 173.00 194.00 
C 168.68 192.35 165.91 199.88 170.32 201.66 C 174.74 203.44 176.83 195.46 173.00 194.00 Z"/>
</g>
<g fill="None" fill-opacity="0.0" stroke="#3F51D4" stroke-opacity="1.00" stroke-width="0.3"><path d="
M 183.00 204.00 
C 184.47 202.81 188.54 202.32 190.00 202.00
C 187.69 202.29 183.90 200.97 183.00 204.00 Z"/>
</g>
<g fill="None" fill-opacity="0.0" stroke="#3F51D4" stroke-opacity="1.00" stroke-width="0.3"><path d="
M 222.00 210.00 
C 225.97 207.97 228.60 205.61 232.00 203.00
C 228.52 205.11 225.24 207.93 222.00 210.00 Z"/>
</g>
<g fill="None" fill-opacity="0.0" stroke="#3F51D4" stroke-opacity="1.00" stroke-width="0.3"><path d="
M 168.00 211.00 
C 166.37 210.64 161.08 206.72 160.00 205.00
C 161.40 207.95 164.90 210.53 168.00 211.00 Z"/>
</g>
<g fill="None" fill-opacity="0.0" stroke="#3F51D4" stroke-opacity="1.00" stroke-width="0.3"><path d="
M 174.00 211.00 
C 177.68 210.62 181.25 208.59 183.00 205.00
C 180.23 206.93 177.20 210.41 174.00 211.00 Z"/>
</g>
<g fill="None" fill-opacity="0.0" stroke="#3F51D4" stroke-opacity="1.00" stroke-width="0.3"><path d="
M 208.00 216.00 
C 210.55 215.13 212.77 214.02 215.00 213.00
C 212.42 213.86 210.25 214.95 208.00 216.00 Z"/>
</g>
<g fill="None" fill-opacity="0.0" stroke="#3F51D4" stroke-opacity="1.00" stroke-width="0.3"><path d="
M 155.00 217.00 
C 152.53 215.97 149.77 214.89 147.00 214.00
C 149.51 215.10 152.16 216.14 155.00 217.00 Z"/>
</g>
<g fill="None" fill-opacity="0.0" stroke="#3F51D4" stroke-opacity="1.00" stroke-width="0.3"><path d="
M 187.00 220.00 
C 182.33 220.00 177.67 220.00 173.00 220.00
C 177.34 220.42 182.60 220.43 187.00 220.00 Z"/>
</g>
<g fill="None" fill-opacity="0.0" stroke="#000809" stroke-opacity="1.00" stroke-width="0.3"><path d="
M 30.00 254.00 
C 31.66 255.06 35.17 253.20 37.00 254.00
C 37.00 250.00 37.00 246.00 37.00 242.00
C 42.00 244.18 43.53 251.53 48.00 254.00
C 49.11 254.41 56.08 254.64 57.00 254.00
C 57.97 247.80 62.05 231.19 50.00 235.00
C 50.00 239.00 50.00 243.00 50.00 247.00
C 42.73 243.26 39.83 231.12 29.00 235.00
C 30.81 239.99 26.15 250.15 30.00 254.00 Z"/>
</g>
<g fill="None" fill-opacity="0.0" stroke="#000809" stroke-opacity="1.00" stroke-width="0.3"><path d="
M 70.00 254.00 
C 75.33 254.11 80.67 253.92 86.00 254.00
C 86.00 252.67 86.00 251.33 86.00 250.00
C 81.50 248.65 71.54 253.07 71.00 247.00
C 74.96 245.99 84.31 249.87 83.00 243.00
C 79.34 241.90 70.77 245.68 71.00 240.00
C 75.80 238.87 86.89 243.40 85.00 235.00
C 77.67 235.00 70.33 235.00 63.00 235.00
C 63.00 241.33 63.00 247.67 63.00 254.00
C 65.33 254.03 67.67 253.95 70.00 254.00 Z"/>
</g>
<g fill="None" fill-opacity="0.0" stroke="#000809" stroke-opacity="1.00" stroke-width="0.3"><path d="
M 93.00 250.00 
C 91.93 251.17 90.85 252.71 90.00 254.00
C 92.00 254.00 94.00 254.00 96.00 254.00
C 98.70 253.02 99.85 248.96 103.00 249.00
C 105.17 253.75 110.20 254.76 115.00 254.00
C 112.68 250.24 108.38 247.80 106.00 244.00
C 109.31 241.56 112.46 238.30 115.00 235.00
C 109.12 233.26 105.92 237.74 102.00 241.00
C 99.41 236.16 94.47 233.80 89.00 235.00
C 91.18 239.13 96.91 241.37 98.00 246.00
C 96.32 247.14 94.58 248.65 93.00 250.00 Z"/>
</g>
<g fill="None" fill-opacity="0.0" stroke="#000809" stroke-opacity="1.00" stroke-width="0.3"><path d="
M 119.00 236.00 
C 118.04 237.38 118.80 244.24 119.00 246.00
C 118.71 255.73 132.66 256.88 138.92 252.92 C 145.18 248.96 146.31 230.85 135.00 235.00
C 138.33 241.45 131.40 257.22 127.00 246.00
C 126.18 243.91 127.22 237.75 126.00 236.00
C 124.46 234.46 120.56 234.44 119.00 236.00 Z"/>
</g>
<g fill="None" fill-opacity="0.0" stroke="#000809" stroke-opacity="1.00" stroke-width="0.3"><path d="
M 169.00 241.00 
C 165.77 235.29 156.25 230.67 149.25 237.25 C 142.25 243.82 155.38 248.61 161.00 249.00
C 156.02 251.43 152.55 246.42 147.00 248.00
C 148.96 254.97 160.49 258.82 167.25 252.25 C 174.00 245.67 160.88 241.11 155.00 241.00
C 159.34 238.86 164.10 242.19 169.00 241.00 Z"/>
</g>
<g fill="None" fill-opacity="0.0" stroke="#000809" stroke-opacity="1.00" stroke-width="0.3"><path d="
M 188.00 254.00 
C 190.67 254.00 193.33 254.00 196.00 254.00
C 196.00 249.33 196.00 244.67 196.00 240.00
C 199.92 240.49 204.74 240.33 203.00 235.00
C 196.12 234.76 192.17 235.32 185.00 235.00 C 177.83 234.68 181.07 242.77 188.00 240.00
C 189.64 243.52 185.81 250.87 188.00 254.00 Z"/>
</g>
<g fill="None" fill-opacity="0.0" stroke="#000809" stroke-opacity="1.00" stroke-width="0.3"><path d="
M 225.00 235.00 
C 208.74 231.63 200.25 247.84 215.78 254.22 C 231.31 260.60 240.30 238.17 225.00 235.00
M 223.00 240.00 
C 228.39 242.63 223.80 252.58 217.78 249.22 C 211.76 245.86 216.65 236.90 223.00 240.00 Z"/>
</g>
<g fill="None" fill-opacity="0.0" stroke="#000809" stroke-opacity="1.00" stroke-width="0.3"><path d="
M 255.00 235.00 
C 238.74 231.63 230.25 247.84 245.78 254.22 C 261.31 260.60 270.30 238.17 255.00 235.00
M 253.00 240.00 
C 258.39 242.63 253.80 252.58 247.78 249.22 C 241.76 245.86 246.65 236.90 253.00 240.00 Z"/>
</g>
<g fill="None" fill-opacity="0.0" stroke="#000809" stroke-opacity="1.00" stroke-width="0.3"><path d="
M 268.00 254.00 
C 275.33 254.00 282.67 254.00 290.00 254.00
C 290.00 252.67 290.00 251.33 290.00 250.00
C 285.33 250.00 280.67 250.00 276.00 250.00
C 275.84 243.54 278.57 231.86 268.00 235.00
C 270.23 239.77 265.02 249.75 268.00 254.00 Z"/>
</g>
<g fill="None" fill-opacity="0.0" stroke="#000809" stroke-opacity="1.00" stroke-width="0.3"><path d="
M 316.00 241.00 
C 312.29 235.42 302.47 230.55 295.25 237.25 C 288.04 243.96 302.95 248.66 308.00 249.00
C 302.51 250.58 298.73 247.21 293.00 249.00
C 297.33 254.69 306.71 258.82 313.75 252.75 C 320.78 246.67 307.49 240.64 302.00 241.00
C 305.84 238.61 311.22 242.35 316.00 241.00 Z"/>
</g>
<g fill="None" fill-opacity="0.0" stroke="#3F51D4" stroke-opacity="1.00" stroke-width="0.3"><path d="
M 119.00 246.00 
C 118.80 244.24 118.04 237.38 119.00 236.00
C 116.59 238.41 118.41 243.47 119.00 246.00 Z"/>
</g>
<g fill="None" fill-opacity="0.0" stroke="#3F51D4" stroke-opacity="1.00" stroke-width="0.3"><path d="
M 127.00 246.00 
C 126.26 242.92 128.32 238.32 126.00 236.00
C 127.22 237.75 126.18 243.91 127.00 246.00 Z"/>
</g>
<g fill="None" fill-opacity="0.0" stroke="#EAEEEF" stroke-opacity="1.00" stroke-width="0.3"><path d="
M 223.00 240.00 
C 216.65 236.90 211.76 245.86 217.78 249.22 C 223.80 252.58 228.39 242.63 223.00 240.00 Z"/>
</g>
<g fill="None" fill-opacity="0.0" stroke="#EAEEEF" stroke-opacity="1.00" stroke-width="0.3"><path d="
M 253.00 240.00 
C 246.65 236.90 241.76 245.86 247.78 249.22 C 253.80 252.58 258.39 242.63 253.00 240.00 Z"/>
</g>
<g fill="None" fill-opacity="0.0" stroke="#3F51D4" stroke-opacity="1.00" stroke-width="0.3"><path d="
M 96.00 254.00 
C 94.00 254.00 92.00 254.00 90.00 254.00
C 90.85 252.71 91.93 251.17 93.00 250.00
C 91.29 251.01 88.95 252.78 89.00 255.00
C 91.57 255.37 94.06 254.91 96.00 254.00 Z"/>
</g>
<g fill="None" fill-opacity="0.0" stroke="#3F51D4" stroke-opacity="1.00" stroke-width="0.3"><path d="
M 37.00 254.00 
C 35.17 253.20 31.66 255.06 30.00 254.00
C 31.34 255.34 35.73 255.82 37.00 254.00 Z"/>
</g>
<g fill="None" fill-opacity="0.0" stroke="#3F51D4" stroke-opacity="1.00" stroke-width="0.3"><path d="
M 57.00 254.00 
C 56.08 254.64 49.11 254.41 48.00 254.00
C 50.05 255.13 54.98 256.02 57.00 254.00 Z"/>
</g>
<g fill="None" fill-opacity="0.0" stroke="#3F51D4" stroke-opacity="1.00" stroke-width="0.3"><path d="
M 86.00 254.00 
C 80.67 253.92 75.33 254.11 70.00 254.00
C 72.43 254.29 84.11 257.27 86.00 254.00 Z"/>
</g>
<g fill="None" fill-opacity="0.0" stroke="#3F51D4" stroke-opacity="1.00" stroke-width="0.3"><path d="
M 196.00 254.00 
C 193.33 254.00 190.67 254.00 188.00 254.00
C 189.15 255.64 194.83 255.67 196.00 254.00 Z"/>
</g>
<g fill="None" fill-opacity="0.0" stroke="#3F51D4" stroke-opacity="1.00" stroke-width="0.3"><path d="
M 290.00 254.00 
C 282.67 254.00 275.33 254.00 268.00 254.00
C 269.40 256.00 288.72 256.22 290.00 254.00 Z"/>
</g>
<g fill="None" fill-opacity="0.0" stroke="#000809" stroke-opacity="1.00" stroke-width="0.3"><path d="
M 55.00 286.00 
C 71.50 290.68 72.23 263.11 55.00 269.00
C 55.00 274.67 55.00 280.33 55.00 286.00
M 57.00 283.00 
C 55.17 281.17 55.22 272.78 57.00 271.00
C 68.00 260.00 68.03 294.03 57.00 283.00 Z"/>
</g>
<g fill="None" fill-opacity="0.0" stroke="#000809" stroke-opacity="1.00" stroke-width="0.3"><path d="
M 74.00 285.00 
C 75.70 280.81 75.61 273.26 74.00 269.00
C 72.30 273.19 72.39 280.74 74.00 285.00 Z"/>
</g>
<g fill="None" fill-opacity="0.0" stroke="#000809" stroke-opacity="1.00" stroke-width="0.3"><path d="
M 94.00 273.00 
C 92.49 268.12 84.55 267.12 81.26 271.26 C 77.97 275.40 78.53 280.71 82.78 284.22 C 87.02 287.74 91.28 282.12 94.00 285.00
C 95.33 280.76 94.02 274.92 88.00 277.00
C 99.54 277.98 84.99 289.68 81.33 280.67 C 77.67 271.66 88.50 266.93 94.00 273.00 Z"/>
</g>
<g fill="None" fill-opacity="0.0" stroke="#000809" stroke-opacity="1.00" stroke-width="0.3"><path d="
M 100.00 285.00 
C 101.70 280.81 101.61 273.26 100.00 269.00
C 98.30 273.19 98.39 280.74 100.00 285.00 Z"/>
</g>
<g fill="None" fill-opacity="0.0" stroke="#000809" stroke-opacity="1.00" stroke-width="0.3"><path d="
M 117.00 269.00 
C 113.00 269.00 109.00 269.00 105.00 269.00
C 113.76 269.00 107.79 280.02 111.00 285.00
C 114.27 280.21 108.20 268.89 117.00 269.00 Z"/>
</g>
<g fill="None" fill-opacity="0.0" stroke="#000809" stroke-opacity="1.00" stroke-width="0.3"><path d="
M 134.00 285.00 
C 130.63 280.16 131.47 271.43 126.00 269.00
C 123.90 274.33 122.37 279.77 120.00 285.00
C 123.42 279.84 130.63 279.87 134.00 285.00
M 130.00 280.00 
C 122.66 282.34 124.15 275.54 127.00 272.00
C 128.62 274.10 129.27 277.29 130.00 280.00 Z"/>
</g>
<g fill="None" fill-opacity="0.0" stroke="#000809" stroke-opacity="1.00" stroke-width="0.3"><path d="
M 148.00 284.00 
C 136.22 287.68 141.74 274.80 139.00 269.00
C 136.69 273.34 138.65 279.84 138.00 285.00
C 141.18 284.47 145.57 286.13 148.00 284.00 Z"/>
</g>
<g fill="None" fill-opacity="0.0" stroke="#000809" stroke-opacity="1.00" stroke-width="0.3"><path d="
M 160.00 285.00 
C 161.82 283.43 160.29 280.71 162.00 279.00
C 173.75 280.00 171.92 265.15 160.00 269.00
C 161.55 273.60 157.93 280.65 160.00 285.00
M 162.00 277.00 
C 160.38 275.93 160.39 271.06 162.00 270.00
C 170.22 264.59 170.21 282.41 162.00 277.00 Z"/>
</g>
<g fill="None" fill-opacity="0.0" stroke="#000809" stroke-opacity="1.00" stroke-width="0.3"><path d="
M 182.00 278.00 
C 190.96 274.83 181.88 265.62 175.00 269.00
C 175.61 274.18 173.75 280.58 176.00 285.00
C 176.72 274.53 181.00 280.22 185.00 285.00
C 184.75 282.39 182.97 280.37 182.00 278.00
M 177.00 277.00 
C 174.25 261.12 192.89 278.95 177.00 277.00 Z"/>
</g>
<g fill="None" fill-opacity="0.0" stroke="#000809" stroke-opacity="1.00" stroke-width="0.3"><path d="
M 202.00 269.00 
C 191.16 265.39 185.13 279.88 194.93 285.07 C 204.73 290.27 211.10 272.03 202.00 269.00
M 200.00 270.00 
C 207.80 271.70 203.94 287.13 196.00 284.00 C 188.06 280.87 192.21 268.30 200.00 270.00 Z"/>
</g>
<g fill="None" fill-opacity="0.0" stroke="#000809" stroke-opacity="1.00" stroke-width="0.3"><path d="
M 211.00 285.00 
C 227.99 291.46 227.90 262.75 211.00 269.00
C 211.00 274.33 211.00 279.67 211.00 285.00
M 213.00 284.00 
C 211.09 282.72 211.15 271.24 213.00 270.00
C 224.47 262.30 224.47 291.70 213.00 284.00 Z"/>
</g>
<g fill="None" fill-opacity="0.0" stroke="#3F51D4" stroke-opacity="1.00" stroke-width="0.3"><path d="
M 229.00 281.00 
C 228.05 277.24 229.71 272.82 229.00 269.00
C 227.04 271.96 227.75 277.93 229.00 281.00 Z"/>
</g>
<g fill="None" fill-opacity="0.0" stroke="#000809" stroke-opacity="1.00" stroke-width="0.3"><path d="
M 229.00 281.00 
C 234.78 293.67 246.24 276.64 240.00 269.00
C 237.35 272.61 241.89 284.71 234.03 283.97 C 226.16 283.24 232.65 272.58 229.00 269.00
C 229.71 272.82 228.05 277.24 229.00 281.00 Z"/>
</g>
<g fill="None" fill-opacity="0.0" stroke="#000809" stroke-opacity="1.00" stroke-width="0.3"><path d="
M 260.00 273.00 
C 255.96 264.66 244.03 269.89 245.03 277.97 C 246.02 286.06 256.43 288.57 260.00 281.00
C 255.25 285.16 246.79 285.21 247.01 277.01 C 247.23 268.80 255.08 268.81 260.00 273.00 Z"/>
</g>
<g fill="None" fill-opacity="0.0" stroke="#000809" stroke-opacity="1.00" stroke-width="0.3"><path d="
M 275.00 269.00 
C 271.00 269.00 267.00 269.00 263.00 269.00
C 271.76 269.00 265.79 280.02 269.00 285.00
C 272.27 280.21 266.20 268.89 275.00 269.00 Z"/>
</g>
<g fill="None" fill-opacity="0.0" stroke="#000809" stroke-opacity="1.00" stroke-width="0.3"><path d="
M 289.00 273.00 
C 289.76 261.61 271.47 274.53 281.98 277.02 C 292.48 279.52 285.44 287.73 279.00 281.00
C 277.61 292.06 296.75 281.41 288.23 277.77 C 279.71 274.13 280.17 267.38 289.00 273.00 Z"/>
</g>
<g fill="None" fill-opacity="0.0" stroke="#EAEEEF" stroke-opacity="1.00" stroke-width="0.3"><path d="
M 57.00 271.00 
C 56.36 271.94 56.36 282.06 57.00 283.00
C 68.03 294.03 68.00 260.00 57.00 271.00 Z"/>
</g>
<g fill="None" fill-opacity="0.0" stroke="#3F51D4" stroke-opacity="1.00" stroke-width="0.3"><path d="
M 162.00 277.00 
C 162.00 274.67 162.00 272.33 162.00 270.00
C 160.39 271.06 160.38 275.93 162.00 277.00 Z"/>
</g>
<g fill="None" fill-opacity="0.0" stroke="#EAEEEF" stroke-opacity="1.00" stroke-width="0.3"><path d="
M 162.00 277.00 
C 170.21 282.41 170.22 264.59 162.00 270.00
C 162.00 272.33 162.00 274.67 162.00 277.00 Z"/>
</g>
<g fill="None" fill-opacity="0.0" stroke="#EAEEEF" stroke-opacity="1.00" stroke-width="0.3"><path d="
M 177.00 277.00 
C 192.89 278.95 174.25 261.12 177.00 277.00 Z"/>
</g>
<g fill="None" fill-opacity="0.0" stroke="#EAEEEF" stroke-opacity="1.00" stroke-width="0.3"><path d="
M 200.00 270.00 
C 192.21 268.30 188.06 280.87 196.00 284.00 C 203.94 287.13 207.80 271.70 200.00 270.00 Z"/>
</g>
<g fill="None" fill-opacity="0.0" stroke="#3F51D4" stroke-opacity="1.00" stroke-width="0.3"><path d="
M 213.00 284.00 
C 213.00 279.33 213.00 274.67 213.00 270.00
C 211.15 271.24 211.09 282.72 213.00 284.00 Z"/>
</g>
<g fill="None" fill-opacity="0.0" stroke="#EAEEEF" stroke-opacity="1.00" stroke-width="0.3"><path d="
M 213.00 284.00 
C 224.47 291.70 224.47 262.30 213.00 270.00
C 213.00 274.67 213.00 279.33 213.00 284.00 Z"/>
</g>
<g fill="None" fill-opacity="0.0" stroke="#3F51D4" stroke-opacity="1.00" stroke-width="0.3"><path d="
M 57.00 283.00 
C 56.36 282.06 56.36 271.94 57.00 271.00
C 55.22 272.78 55.17 281.17 57.00 283.00 Z"/>
</g>
<g fill="None" fill-opacity="0.0" stroke="#EAEEEF" stroke-opacity="1.00" stroke-width="0.3"><path d="
M 130.00 280.00 
C 129.27 277.29 128.62 274.10 127.00 272.00
C 124.15 275.54 122.66 282.34 130.00 280.00 Z"/>
</g>
<g fill="None" fill-opacity="0.0" stroke="#3F51D4" stroke-opacity="1.00" stroke-width="0.3"><path d="
M 160.00 285.00 
C 161.66 288.49 162.07 278.91 162.00 279.00
C 160.29 280.71 161.82 283.43 160.00 285.00 Z"/>
</g>
<g fill="#EAEEEF" fill-opacity="1.00" stroke="None">
<path d="
M 0.00 360.00 
L 360.00 360.00
L 360.00 0.00
L 0.00 0.00
L 0.00 360.00
M 193.00 47.00 
C 205.46 47.95 217.55 53.26 228.00 60.00
C 236.86 65.72 244.78 73.46 251.00 82.00
C 252.81 84.48 253.76 86.38 255.00 89.00
C 256.78 92.00 258.63 94.51 260.00 98.00
C 262.33 103.94 265.27 109.56 266.00 116.00
C 287.33 116.00 308.67 116.00 330.00 116.00
C 335.14 114.10 338.65 104.56 346.00 110.00
C 346.50 110.00 347.00 110.00 347.00 110.00
C 349.63 110.51 352.79 113.54 354.00 116.00
C 354.20 116.40 354.00 117.00 354.00 117.00
C 357.10 119.38 355.74 123.28 355.00 126.00
C 353.35 132.11 351.32 133.64 344.97 135.97 C 338.63 138.31 334.90 131.91 329.92 130.08 C 324.94 128.25 315.65 130.17 310.00 130.00 C 304.35 129.83 294.48 128.93 289.00 130.00 C 283.52 131.07 272.31 126.98 268.00 130.00
C 268.56 135.57 267.32 140.64 267.00 146.00
C 272.67 149.85 283.29 143.38 290.00 146.00 C 296.71 148.62 301.68 140.63 307.67 139.67 C 313.66 138.71 319.46 142.24 322.00 148.00
C 324.40 153.43 323.32 160.04 318.00 164.00
C 314.11 166.89 310.56 167.42 306.00 166.00
C 302.61 164.94 300.64 160.97 298.00 160.00
C 289.45 157.44 279.80 162.08 271.00 160.00 C 262.20 157.92 260.35 168.10 257.23 174.23 C 254.10 180.36 250.54 185.69 246.00 191.00
C 243.81 193.56 241.51 195.85 239.00 198.00
C 236.68 199.98 234.37 201.56 232.00 203.00
C 228.60 205.61 225.97 207.97 222.00 210.00
C 219.63 211.21 217.48 212.17 215.00 213.00
C 212.77 214.02 210.55 215.13 208.00 216.00
C 201.05 218.38 194.64 220.00 187.00 220.00
C 182.60 220.43 177.34 220.42 173.00 220.00
C 166.47 220.00 161.01 218.82 155.00 217.00
C 152.16 216.14 149.51 215.10 147.00 214.00
C 137.18 210.85 128.95 204.80 121.00 198.00
C 118.44 195.81 116.15 193.51 114.00 191.00
C 112.31 189.02 111.21 187.00 110.00 185.00
C 107.89 182.25 105.75 180.17 104.00 177.00
C 100.82 171.22 100.27 161.31 92.99 160.01 C 85.71 158.70 71.87 160.97 64.00 160.00
C 58.95 171.01 44.52 167.16 40.08 157.92 C 35.63 148.69 47.75 133.47 57.67 140.33 C 67.59 147.19 80.21 146.83 93.00 146.00
C 93.00 144.33 93.00 142.67 93.00 141.00
C 93.07 138.30 90.87 133.47 92.00 130.00
C 87.58 126.90 76.79 130.95 71.00 130.00 C 65.21 129.05 55.11 129.67 49.00 130.00 C 42.89 130.33 33.35 127.57 28.26 131.26 C 23.17 134.95 18.86 137.56 12.00 135.00
C 7.26 133.23 3.61 128.12 4.00 123.00
C 4.04 122.50 4.00 122.00 4.00 122.00
C 3.72 118.30 5.20 117.46 7.00 115.00
C 8.39 113.09 8.00 113.38 10.00 112.00
C 13.04 109.91 17.26 107.23 21.00 110.00
C 21.50 110.05 22.00 110.00 22.00 110.00
C 24.97 110.28 28.69 112.82 29.00 116.00
C 38.61 119.37 50.76 114.29 61.00 116.00 C 71.24 117.71 83.57 114.72 94.00 116.00
C 95.95 104.14 101.12 92.93 108.00 83.00
C 114.17 74.00 122.99 65.81 132.00 60.00
C 141.11 54.12 151.26 49.40 162.00 48.00
C 165.83 47.11 169.47 46.09 174.00 46.00
C 177.99 45.92 182.01 45.92 186.00 46.00
C 188.56 46.05 191.11 46.69 193.00 47.00
M 57.00 254.00 
C 54.98 256.02 50.05 255.13 48.00 254.00
C 43.53 251.53 42.00 244.18 37.00 242.00
C 37.00 246.00 37.00 250.00 37.00 254.00
C 35.73 255.82 31.34 255.34 30.00 254.00
C 26.15 250.15 30.81 239.99 29.00 235.00
C 39.83 231.12 42.73 243.26 50.00 247.00
C 50.00 243.00 50.00 239.00 50.00 235.00
C 62.05 231.19 57.97 247.80 57.00 254.00
M 86.00 254.00 
C 84.11 257.27 72.43 254.29 70.00 254.00
C 67.67 253.95 65.33 254.03 63.00 254.00
C 63.00 247.67 63.00 241.33 63.00 235.00
C 70.33 235.00 77.67 235.00 85.00 235.00
C 86.89 243.40 75.80 238.87 71.00 240.00
C 70.77 245.68 79.34 241.90 83.00 243.00
C 84.31 249.87 74.96 245.99 71.00 247.00
C 71.54 253.07 81.50 248.65 86.00 250.00
C 86.00 251.33 86.00 252.67 86.00 254.00
M 96.00 254.00 
C 94.06 254.91 91.57 255.37 89.00 255.00
C 88.95 252.78 91.29 251.01 93.00 250.00
C 94.58 248.65 96.32 247.14 98.00 246.00
C 96.91 241.37 91.18 239.13 89.00 235.00
C 94.47 233.80 99.41 236.16 102.00 241.00
C 105.92 237.74 109.12 233.26 115.00 235.00
C 112.46 238.30 109.31 241.56 106.00 244.00
C 108.38 247.80 112.68 250.24 115.00 254.00
C 110.20 254.76 105.17 253.75 103.00 249.00
C 99.85 248.96 98.70 253.02 96.00 254.00
M 126.00 236.00 
C 128.32 238.32 126.26 242.92 127.00 246.00
C 131.40 257.22 138.33 241.45 135.00 235.00
C 146.31 230.85 145.18 248.96 138.92 252.92 C 132.66 256.88 118.71 255.73 119.00 246.00
C 118.41 243.47 116.59 238.41 119.00 236.00
C 120.56 234.44 124.46 234.46 126.00 236.00
M 169.00 241.00 
C 164.10 242.19 159.34 238.86 155.00 241.00
C 160.88 241.11 174.00 245.67 167.25 252.25 C 160.49 258.82 148.96 254.97 147.00 248.00
C 152.55 246.42 156.02 251.43 161.00 249.00
C 155.38 248.61 142.25 243.82 149.25 237.25 C 156.25 230.67 165.77 235.29 169.00 241.00
M 196.00 254.00 
C 194.83 255.67 189.15 255.64 188.00 254.00
C 185.81 250.87 189.64 243.52 188.00 240.00
C 181.07 242.77 177.83 234.68 185.00 235.00 C 192.17 235.32 196.12 234.76 203.00 235.00
C 204.74 240.33 199.92 240.49 196.00 240.00
C 196.00 244.67 196.00 249.33 196.00 254.00
M 225.00 235.00 
C 240.30 238.17 231.31 260.60 215.78 254.22 C 200.25 247.84 208.74 231.63 225.00 235.00
M 255.00 235.00 
C 270.30 238.17 261.31 260.60 245.78 254.22 C 230.25 247.84 238.74 231.63 255.00 235.00
M 290.00 254.00 
C 288.72 256.22 269.40 256.00 268.00 254.00
C 265.02 249.75 270.23 239.77 268.00 235.00
C 278.57 231.86 275.84 243.54 276.00 250.00
C 280.67 250.00 285.33 250.00 290.00 250.00
C 290.00 251.33 290.00 252.67 290.00 254.00
M 316.00 241.00 
C 311.22 242.35 305.84 238.61 302.00 241.00
C 307.49 240.64 320.78 246.67 313.75 252.75 C 306.71 258.82 297.33 254.69 293.00 249.00
C 298.73 247.21 302.51 250.58 308.00 249.00
C 302.95 248.66 288.04 243.96 295.25 237.25 C 302.47 230.55 312.29 235.42 316.00 241.00
M 55.00 286.00 
C 55.00 280.33 55.00 274.67 55.00 269.00
C 72.23 263.11 71.50 290.68 55.00 286.00
M 74.00 285.00 
C 72.39 280.74 72.30 273.19 74.00 269.00
C 75.61 273.26 75.70 280.81 74.00 285.00
M 94.00 273.00 
C 88.50 266.93 77.67 271.66 81.33 280.67 C 84.99 289.68 99.54 277.98 88.00 277.00
C 94.02 274.92 95.33 280.76 94.00 285.00
C 91.28 282.12 87.02 287.74 82.78 284.22 C 78.53 280.71 77.97 275.40 81.26 271.26 C 84.55 267.12 92.49 268.12 94.00 273.00
M 100.00 285.00 
C 98.39 280.74 98.30 273.19 100.00 269.00
C 101.61 273.26 101.70 280.81 100.00 285.00
M 117.00 269.00 
C 108.20 268.89 114.27 280.21 111.00 285.00
C 107.79 280.02 113.76 269.00 105.00 269.00
C 109.00 269.00 113.00 269.00 117.00 269.00
M 134.00 285.00 
C 130.63 279.87 123.42 279.84 120.00 285.00
C 122.37 279.77 123.90 274.33 126.00 269.00
C 131.47 271.43 130.63 280.16 134.00 285.00
M 148.00 284.00 
C 145.57 286.13 141.18 284.47 138.00 285.00
C 138.65 279.84 136.69 273.34 139.00 269.00
C 141.74 274.80 136.22 287.68 148.00 284.00
M 162.00 279.00 
C 162.07 278.91 161.66 288.49 160.00 285.00
C 157.93 280.65 161.55 273.60 160.00 269.00
C 171.92 265.15 173.75 280.00 162.00 279.00
M 182.00 278.00 
C 182.97 280.37 184.75 282.39 185.00 285.00
C 181.00 280.22 176.72 274.53 176.00 285.00
C 173.75 280.58 175.61 274.18 175.00 269.00
C 181.88 265.62 190.96 274.83 182.00 278.00
M 202.00 269.00 
C 211.10 272.03 204.73 290.27 194.93 285.07 C 185.13 279.88 191.16 265.39 202.00 269.00
M 211.00 285.00 
C 211.00 279.67 211.00 274.33 211.00 269.00
C 227.90 262.75 227.99 291.46 211.00 285.00
M 229.00 281.00 
C 227.75 277.93 227.04 271.96 229.00 269.00
C 232.65 272.58 226.16 283.24 234.03 283.97 C 241.89 284.71 237.35 272.61 240.00 269.00
C 246.24 276.64 234.78 293.67 229.00 281.00
M 260.00 273.00 
C 255.08 268.81 247.23 268.80 247.01 277.01 C 246.79 285.21 255.25 285.16 260.00 281.00
C 256.43 288.57 246.02 286.06 245.03 277.97 C 244.03 269.89 255.96 264.66 260.00 273.00
M 275.00 269.00 
C 266.20 268.89 272.27 280.21 269.00 285.00
C 265.79 280.02 271.76 269.00 263.00 269.00
C 267.00 269.00 271.00 269.00 275.00 269.00
M 289.00 273.00 
C 280.17 267.38 279.71 274.13 288.23 277.77 C 296.75 281.41 277.61 292.06 279.00 281.00
C 285.44 287.73 292.48 279.52 281.98 277.02 C 271.47 274.53 289.76 261.61 289.00 273.00 Z"/>
</g>
<g fill="#3F51D4" fill-opacity="1.00" stroke="None">
<path d="
M 162.00 48.00 
C 165.87 47.50 170.66 46.32 174.00 46.00
C 169.47 46.09 165.83 47.11 162.00 48.00 Z"/>
</g>
<g fill="#003AF7" fill-opacity="1.00" stroke="None">
<path d="
M 162.00 48.00 
C 151.26 49.40 141.11 54.12 132.00 60.00
C 123.70 66.75 115.09 74.86 108.00 83.00
C 101.12 92.93 95.95 104.14 94.00 116.00
C 83.57 114.72 71.24 117.71 61.00 116.00 C 50.76 114.29 38.61 119.37 29.00 116.00
C 27.09 115.33 23.68 111.35 22.00 110.00
C 22.00 110.00 21.50 110.05 21.00 110.00
C 17.06 109.63 13.38 110.25 10.00 112.00
C 8.00 113.38 8.39 113.09 7.00 115.00
C 5.72 117.34 5.11 119.97 4.00 122.00
C 4.00 122.00 4.04 122.50 4.00 123.00
C 6.14 126.92 7.27 132.71 12.00 135.00
C 18.86 137.56 23.17 134.95 28.26 131.26 C 33.35 127.57 42.89 130.33 49.00 130.00 C 55.11 129.67 65.21 129.05 71.00 130.00 C 76.79 130.95 87.58 126.90 92.00 130.00
C 93.94 131.36 93.29 138.63 93.00 141.00
C 93.00 142.67 93.00 144.33 93.00 146.00
C 80.21 146.83 67.59 147.19 57.67 140.33 C 47.75 133.47 35.63 148.69 40.08 157.92 C 44.52 167.16 58.95 171.01 64.00 160.00
C 71.87 160.97 85.71 158.70 92.99 160.01 C 100.27 161.31 100.82 171.22 104.00 177.00
C 105.81 179.62 108.25 182.11 110.00 185.00
C 111.21 187.00 112.31 189.02 114.00 191.00
C 116.55 193.40 118.57 195.37 121.00 198.00
C 128.95 204.80 137.18 210.85 147.00 214.00
C 149.77 214.89 152.53 215.97 155.00 217.00
C 161.01 218.82 166.47 220.00 173.00 220.00
C 177.67 220.00 182.33 220.00 187.00 220.00
C 194.64 220.00 201.05 218.38 208.00 216.00
C 210.25 214.95 212.42 213.86 215.00 213.00
C 217.48 212.17 219.63 211.21 222.00 210.00
C 225.24 207.93 228.52 205.11 232.00 203.00
C 234.37 201.56 236.68 199.98 239.00 198.00
C 241.26 195.74 243.79 193.21 246.00 191.00
C 250.54 185.69 254.10 180.36 257.23 174.23 C 260.35 168.10 262.20 157.92 271.00 160.00 C 279.80 162.08 289.45 157.44 298.00 160.00
C 300.92 160.87 303.32 164.93 306.00 166.00
C 310.56 167.42 314.11 166.89 318.00 164.00
C 321.55 160.49 323.14 153.15 322.00 148.00
C 319.46 142.24 313.66 138.71 307.67 139.67 C 301.68 140.63 296.71 148.62 290.00 146.00 C 283.29 143.38 272.67 149.85 267.00 146.00
C 265.42 144.92 266.47 131.07 268.00 130.00
C 272.31 126.98 283.52 131.07 289.00 130.00 C 294.48 128.93 304.35 129.83 310.00 130.00 C 315.65 130.17 324.94 128.25 329.92 130.08 C 334.90 131.91 338.63 138.31 344.97 135.97 C 351.32 133.64 353.35 132.11 355.00 126.00
C 355.37 122.96 354.98 119.75 354.00 117.00
C 354.00 117.00 354.20 116.40 354.00 116.00
C 351.49 114.25 349.36 111.51 347.00 110.00
C 347.00 110.00 346.50 110.00 346.00 110.00
C 337.84 110.00 336.50 114.05 330.00 116.00
C 308.67 116.00 287.33 116.00 266.00 116.00
C 265.27 109.56 262.33 103.94 260.00 98.00
C 258.47 95.14 256.48 92.13 255.00 89.00
C 253.76 86.38 252.81 84.48 251.00 82.00
C 243.88 74.30 235.99 66.50 228.00 60.00
C 217.55 53.26 205.46 47.95 193.00 47.00
C 190.72 46.83 187.61 46.16 186.00 46.00
C 182.01 45.92 177.99 45.92 174.00 46.00
C 170.66 46.32 165.87 47.50 162.00 48.00
M 192.00 56.00 
C 193.44 56.48 195.76 57.19 197.00 58.00
C 203.27 62.11 203.46 70.94 199.00 76.00
C 196.94 78.34 195.02 79.95 192.00 81.00
C 189.24 81.96 187.71 81.94 185.00 81.00
C 181.88 79.92 180.23 78.10 178.00 76.00
C 175.33 74.13 173.40 73.76 170.00 74.00
C 169.50 74.03 168.50 73.99 168.00 74.00
C 165.87 74.74 163.54 75.49 161.00 76.00
C 154.05 77.39 147.74 80.73 142.00 85.00
C 138.20 88.31 133.19 93.21 130.00 97.00
C 128.99 98.42 128.70 99.57 128.00 101.00
C 126.48 104.10 125.05 107.45 123.00 110.00
C 122.89 110.47 123.00 111.00 123.00 111.00
C 127.56 114.68 134.40 110.46 140.00 112.00 C 145.60 113.54 151.93 110.14 158.00 112.00 C 164.07 113.86 165.71 108.29 170.00 106.00
C 172.65 104.58 176.87 103.78 180.00 104.00
C 184.48 104.31 188.63 107.79 190.00 112.00
C 195.11 127.73 172.79 137.52 166.00 122.00
C 150.33 122.00 134.67 122.00 119.00 122.00
C 118.97 133.02 118.00 144.30 123.00 154.00
C 124.44 156.85 126.47 159.94 128.00 163.00
C 129.61 166.23 130.93 170.10 135.00 171.00
C 139.53 171.58 141.65 169.17 146.00 173.00
C 163.64 188.53 133.33 208.14 126.00 187.00
C 125.03 184.21 125.74 182.52 126.00 180.00
C 125.91 171.66 114.55 160.55 112.00 151.00
C 111.03 148.62 110.10 147.03 110.00 144.00
C 109.97 143.00 110.00 142.00 110.00 141.00
C 109.36 138.09 108.72 134.57 109.00 131.00
C 109.68 122.49 111.64 114.10 114.00 106.00
C 114.89 102.95 116.36 101.39 118.00 99.00
C 119.82 95.70 121.95 91.93 124.00 89.00
C 126.56 85.34 130.42 81.55 134.00 79.00
C 139.99 74.72 144.76 72.89 151.22 69.22 C 157.68 65.56 167.11 66.33 174.00 64.00
C 177.60 62.45 178.73 57.54 183.00 56.00
C 183.44 55.84 184.00 56.00 184.00 56.00
C 186.50 54.15 189.58 55.20 192.00 56.00
M 250.00 125.00 
C 251.33 131.53 251.40 136.67 250.00 143.00
C 249.24 150.43 246.67 158.12 244.00 165.00
C 242.79 168.11 240.89 169.62 239.00 172.00
C 238.17 173.31 237.71 174.85 237.00 176.00
C 234.28 180.40 228.34 186.31 224.00 189.00
C 222.92 189.67 221.22 190.22 220.00 191.00
C 216.14 194.07 212.95 196.56 208.00 198.00
C 202.21 199.68 196.06 201.25 190.00 202.00
C 188.54 202.32 184.47 202.81 183.00 204.00
C 182.86 204.46 183.00 205.00 183.00 205.00
C 181.25 208.59 177.68 210.62 174.00 211.00
C 172.20 211.19 169.79 211.27 168.00 211.00
C 164.90 210.53 161.40 207.95 160.00 205.00
C 159.63 204.21 159.36 202.91 159.00 202.00
C 157.84 199.11 157.93 196.84 159.00 194.00
C 161.84 186.48 170.69 182.81 178.00 186.00
C 180.67 187.17 183.42 190.74 185.00 193.00
C 185.46 193.13 186.00 193.00 186.00 193.00
C 187.99 191.53 190.41 192.24 193.00 192.00
C 199.57 191.40 205.24 189.18 211.00 186.00
C 213.92 183.98 217.03 181.27 220.00 179.00
C 220.32 178.76 221.00 179.00 221.00 179.00
C 224.95 173.34 230.25 168.42 234.00 163.00
C 235.59 160.12 237.21 157.16 238.00 154.00
C 223.33 154.00 208.67 154.00 194.00 154.00
C 190.81 165.00 173.63 164.44 170.00 154.00
C 168.52 151.23 166.67 147.54 170.00 145.00
C 170.18 144.58 170.00 144.00 170.00 144.00
C 170.64 140.71 174.06 138.01 177.00 137.00
C 181.04 135.62 186.19 135.97 190.00 138.00
C 194.76 140.54 195.37 145.37 202.00 144.00 C 208.63 142.63 214.51 144.71 221.00 144.00 C 227.49 143.29 233.55 144.54 240.00 144.00
C 240.11 143.00 239.53 141.27 241.00 141.00
C 242.57 133.93 240.76 126.19 239.67 119.33 C 238.58 112.47 235.36 110.26 232.70 103.30 C 230.03 96.35 225.29 96.35 219.00 96.00
C 215.35 95.79 211.69 93.41 210.00 90.00
C 204.93 79.74 213.62 66.26 225.67 70.33 C 237.72 74.40 231.30 88.23 238.30 95.70 C 245.30 103.16 249.14 115.26 250.00 125.00
M 21.00 120.00 
C 24.39 127.80 10.62 127.78 14.00 120.00
C 15.24 117.14 19.77 117.18 21.00 120.00
M 344.00 119.00 
C 348.02 119.96 347.30 127.59 342.30 126.64 C 337.31 125.70 338.72 117.74 344.00 119.00
M 314.00 151.00 
C 315.18 157.61 304.80 157.04 306.00 151.00
C 306.84 146.77 313.28 147.00 314.00 151.00
M 54.00 149.00 
C 59.02 149.90 56.86 158.46 51.99 156.99 C 47.13 155.52 49.60 148.21 54.00 149.00 Z"/>
</g>
<g fill="#3F51D4" fill-opacity="1.00" stroke="None">
<path d="
M 193.00 47.00 
C 191.11 46.69 188.56 46.05 186.00 46.00
C 187.61 46.16 190.72 46.83 193.00 47.00 Z"/>
</g>
<g fill="#3F51D4" fill-opacity="1.00" stroke="None">
<path d="
M 184.00 56.00 
C 186.51 56.00 189.54 55.53 192.00 56.00
C 189.58 55.20 186.50 54.15 184.00 56.00 Z"/>
</g>
<g fill="#3F51D4" fill-opacity="1.00" stroke="None">
<path d="
M 174.00 64.00 
C 177.41 62.85 180.50 58.61 183.00 56.00
C 178.73 57.54 177.60 62.45 174.00 64.00 Z"/>
</g>
<g fill="#EAEEEF" fill-opacity="1.00" stroke="None">
<path d="
M 174.00 64.00 
C 167.11 66.33 157.68 65.56 151.22 69.22 C 144.76 72.89 139.99 74.72 134.00 79.00
C 130.93 81.57 126.49 85.96 124.00 89.00
C 121.95 91.93 119.82 95.70 118.00 99.00
C 116.80 101.17 114.83 103.98 114.00 106.00
C 111.64 114.10 109.68 122.49 109.00 131.00
C 109.04 133.50 110.00 137.77 110.00 141.00
C 110.00 142.00 109.97 143.00 110.00 144.00
C 110.39 145.83 111.42 148.82 112.00 151.00
C 114.55 160.55 125.91 171.66 126.00 180.00
C 126.02 182.21 125.59 184.84 126.00 187.00
C 133.33 208.14 163.64 188.53 146.00 173.00
C 142.25 170.53 139.13 171.91 135.00 171.00
C 130.93 170.10 129.61 166.23 128.00 163.00
C 126.11 159.98 124.32 157.57 123.00 154.00
C 118.00 144.30 118.97 133.02 119.00 122.00
C 134.67 122.00 150.33 122.00 166.00 122.00
C 172.79 137.52 195.11 127.73 190.00 112.00
C 188.70 108.92 182.99 104.46 180.00 104.00
C 176.87 103.78 172.65 104.58 170.00 106.00
C 166.10 108.68 163.99 114.72 158.00 113.00 C 152.01 111.28 143.60 113.46 139.00 113.00 C 134.40 112.54 121.03 113.49 123.00 111.00
C 123.00 111.00 122.89 110.47 123.00 110.00
C 123.88 106.26 126.17 103.95 128.00 101.00
C 128.70 99.57 128.99 98.42 130.00 97.00
C 133.09 92.65 137.78 88.14 142.00 85.00
C 147.74 80.73 154.05 77.39 161.00 76.00
C 163.37 75.23 164.98 74.08 168.00 74.00
C 168.50 73.99 169.50 74.03 170.00 74.00
C 173.89 72.15 175.14 73.30 178.00 76.00
C 180.23 78.10 181.88 79.92 185.00 81.00
C 186.85 81.36 190.15 81.36 192.00 81.00
C 195.02 79.95 196.94 78.34 199.00 76.00
C 202.27 71.04 201.87 62.00 197.00 58.00
C 195.76 57.19 193.44 56.48 192.00 56.00
C 189.54 55.53 186.51 56.00 184.00 56.00
C 184.00 56.00 183.44 55.84 183.00 56.00
C 180.50 58.61 177.41 62.85 174.00 64.00
M 187.00 72.00 
C 183.47 70.64 184.53 65.44 188.00 65.00
C 194.27 64.21 192.72 74.20 187.00 72.00
M 176.00 120.00 
C 174.42 118.98 173.66 118.09 174.00 116.00
C 175.99 103.73 187.84 127.67 176.00 120.00
M 141.00 180.00 
C 144.10 181.39 142.21 188.91 137.75 187.20 C 133.30 185.48 134.93 177.28 141.00 180.00 Z"/>
</g>
<g fill="#3F51D4" fill-opacity="1.00" stroke="None">
<path d="
M 199.00 76.00 
C 203.46 70.94 203.27 62.11 197.00 58.00
C 201.87 62.00 202.27 71.04 199.00 76.00 Z"/>
</g>
<g fill="#3F51D4" fill-opacity="1.00" stroke="None">
<path d="
M 108.00 83.00 
C 115.09 74.86 123.70 66.75 132.00 60.00
C 122.99 65.81 114.17 74.00 108.00 83.00 Z"/>
</g>
<g fill="#3F51D4" fill-opacity="1.00" stroke="None">
<path d="
M 251.00 82.00 
C 244.78 73.46 236.86 65.72 228.00 60.00
C 235.99 66.50 243.88 74.30 251.00 82.00 Z"/>
</g>
<g fill="#3F51D4" fill-opacity="1.00" stroke="None">
<path d="
M 187.00 72.00 
C 184.76 70.62 186.00 65.63 188.00 65.00
C 184.53 65.44 183.47 70.64 187.00 72.00 Z"/>
</g>
<g fill="#003AF7" fill-opacity="1.00" stroke="None">
<path d="
M 187.00 72.00 
C 192.72 74.20 194.27 64.21 188.00 65.00
C 186.00 65.63 184.76 70.62 187.00 72.00 Z"/>
</g>
<g fill="#EAEEEF" fill-opacity="1.00" stroke="None">
<path d="
M 210.00 90.00 
C 211.28 92.18 216.99 95.72 219.00 96.00
C 225.29 96.35 230.03 96.35 232.70 103.30 C 235.36 110.26 238.58 112.47 239.67 119.33 C 240.76 126.19 242.57 133.93 241.00 141.00
C 239.31 148.61 231.72 143.36 225.00 145.00 C 218.28 146.64 211.41 142.67 204.00 145.00 C 196.59 147.33 194.63 141.17 190.00 138.00
C 186.19 135.97 181.04 135.62 177.00 137.00
C 174.63 138.05 171.32 141.93 170.00 144.00
C 170.00 144.00 170.18 144.58 170.00 145.00
C 168.82 147.72 168.96 151.18 170.00 154.00
C 173.63 164.44 190.81 165.00 194.00 154.00
C 208.67 154.00 223.33 154.00 238.00 154.00
C 237.21 157.16 235.59 160.12 234.00 163.00
C 231.21 168.05 226.50 176.31 221.00 179.00
C 221.00 179.00 220.32 178.76 220.00 179.00
C 217.63 182.39 214.47 184.09 211.00 186.00
C 205.24 189.18 199.57 191.40 193.00 192.00
C 191.02 192.35 188.65 193.25 186.00 193.00
C 186.00 193.00 185.46 193.13 185.00 193.00
C 181.97 192.11 180.77 187.45 178.00 186.00
C 170.69 182.81 161.84 186.48 159.00 194.00
C 158.54 196.01 158.60 199.97 159.00 202.00
C 159.36 202.91 159.63 204.21 160.00 205.00
C 161.08 206.72 166.37 210.64 168.00 211.00
C 169.79 211.27 172.20 211.19 174.00 211.00
C 177.20 210.41 180.23 206.93 183.00 205.00
C 183.00 205.00 182.86 204.46 183.00 204.00
C 183.90 200.97 187.69 202.29 190.00 202.00
C 196.06 201.25 202.21 199.68 208.00 198.00
C 211.84 196.42 216.31 193.34 220.00 191.00
C 221.22 190.22 222.92 189.67 224.00 189.00
C 227.78 186.22 234.26 179.73 237.00 176.00
C 237.71 174.85 238.17 173.31 239.00 172.00
C 240.42 169.75 242.97 167.08 244.00 165.00
C 246.67 158.12 249.24 150.43 250.00 143.00
C 250.63 136.84 250.56 131.32 250.00 125.00
C 249.14 115.26 245.30 103.16 238.30 95.70 C 231.30 88.23 237.72 74.40 225.67 70.33 C 213.62 66.26 204.93 79.74 210.00 90.00
M 224.00 79.00 
C 227.71 81.42 223.30 88.98 219.25 85.74 C 215.21 82.50 219.91 76.33 224.00 79.00
M 184.00 145.00 
C 188.77 146.82 185.06 155.20 180.33 152.67 C 175.59 150.13 180.32 143.60 184.00 145.00
M 173.00 194.00 
C 176.83 195.46 174.74 203.44 170.32 201.66 C 165.91 199.88 168.68 192.35 173.00 194.00 Z"/>
</g>
<g fill="#3F51D4" fill-opacity="1.00" stroke="None">
<path d="
M 170.00 74.00 
C 173.40 73.76 175.33 74.13 178.00 76.00
C 175.14 73.30 173.89 72.15 170.00 74.00 Z"/>
</g>
<g fill="#3F51D4" fill-opacity="1.00" stroke="None">
<path d="
M 161.00 76.00 
C 163.54 75.49 165.87 74.74 168.00 74.00
C 164.98 74.08 163.37 75.23 161.00 76.00 Z"/>
</g>
<g fill="#3F51D4" fill-opacity="1.00" stroke="None">
<path d="
M 124.00 89.00 
C 126.49 85.96 130.93 81.57 134.00 79.00
C 130.42 81.55 126.56 85.34 124.00 89.00 Z"/>
</g>
<g fill="#3F51D4" fill-opacity="1.00" stroke="None">
<path d="
M 224.00 79.00 
C 219.91 76.33 215.21 82.50 219.25 85.74 C 223.30 88.98 227.71 81.42 224.00 79.00 Z"/>
</g>
<g fill="#3F51D4" fill-opacity="1.00" stroke="None">
<path d="
M 192.00 81.00 
C 190.15 81.36 186.85 81.36 185.00 81.00
C 187.71 81.94 189.24 81.96 192.00 81.00 Z"/>
</g>
<g fill="#3F51D4" fill-opacity="1.00" stroke="None">
<path d="
M 130.00 97.00 
C 133.19 93.21 138.20 88.31 142.00 85.00
C 137.78 88.14 133.09 92.65 130.00 97.00 Z"/>
</g>
<g fill="#3F51D4" fill-opacity="1.00" stroke="None">
<path d="
M 260.00 98.00 
C 258.63 94.51 256.78 92.00 255.00 89.00
C 256.48 92.13 258.47 95.14 260.00 98.00 Z"/>
</g>
<g fill="#3F51D4" fill-opacity="1.00" stroke="None">
<path d="
M 219.00 96.00 
C 216.99 95.72 211.28 92.18 210.00 90.00
C 211.69 93.41 215.35 95.79 219.00 96.00 Z"/>
</g>
<g fill="#3F51D4" fill-opacity="1.00" stroke="None">
<path d="
M 114.00 106.00 
C 114.83 103.98 116.80 101.17 118.00 99.00
C 116.36 101.39 114.89 102.95 114.00 106.00 Z"/>
</g>
<g fill="#3F51D4" fill-opacity="1.00" stroke="None">
<path d="
M 123.00 110.00 
C 125.05 107.45 126.48 104.10 128.00 101.00
C 126.17 103.95 123.88 106.26 123.00 110.00 Z"/>
</g>
<g fill="#3F51D4" fill-opacity="1.00" stroke="None">
<path d="
M 190.00 112.00 
C 188.63 107.79 184.48 104.31 180.00 104.00
C 182.99 104.46 188.70 108.92 190.00 112.00 Z"/>
</g>
<g fill="#3F51D4" fill-opacity="1.00" stroke="None">
<path d="
M 123.00 111.00 
C 121.03 113.49 134.40 112.54 139.00 113.00 C 143.60 113.46 152.01 111.28 158.00 113.00 C 163.99 114.72 166.10 108.68 170.00 106.00
C 165.71 108.29 164.07 113.86 158.00 112.00 C 151.93 110.14 145.60 113.54 140.00 112.00 C 134.40 110.46 127.56 114.68 123.00 111.00 Z"/>
</g>
<g fill="#3F51D4" fill-opacity="1.00" stroke="None">
<path d="
M 10.00 112.00 
C 13.38 110.25 17.06 109.63 21.00 110.00
C 17.26 107.23 13.04 109.91 10.00 112.00 Z"/>
</g>
<g fill="#3F51D4" fill-opacity="1.00" stroke="None">
<path d="
M 330.00 116.00 
C 336.50 114.05 337.84 110.00 346.00 110.00
C 338.65 104.56 335.14 114.10 330.00 116.00 Z"/>
</g>
<g fill="#3F51D4" fill-opacity="1.00" stroke="None">
<path d="
M 29.00 116.00 
C 28.69 112.82 24.97 110.28 22.00 110.00
C 23.68 111.35 27.09 115.33 29.00 116.00 Z"/>
</g>
<g fill="#3F51D4" fill-opacity="1.00" stroke="None">
<path d="
M 354.00 116.00 
C 352.79 113.54 349.63 110.51 347.00 110.00
C 349.36 111.51 351.49 114.25 354.00 116.00 Z"/>
</g>
<g fill="#3F51D4" fill-opacity="1.00" stroke="None">
<path d="
M 174.00 116.00 
C 175.33 111.35 183.06 115.89 180.00 120.00
C 178.67 120.00 177.33 120.00 176.00 120.00
C 187.84 127.67 175.99 103.73 174.00 116.00 Z"/>
</g>
<g fill="#003AF7" fill-opacity="1.00" stroke="None">
<path d="
M 174.00 116.00 
C 173.66 118.09 174.42 118.98 176.00 120.00
C 177.33 120.00 178.67 120.00 180.00 120.00
C 183.06 115.89 175.33 111.35 174.00 116.00 Z"/>
</g>
<g fill="#3F51D4" fill-opacity="1.00" stroke="None">
<path d="
M 4.00 122.00 
C 5.11 119.97 5.72 117.34 7.00 115.00
C 5.20 117.46 3.72 118.30 4.00 122.00 Z"/>
</g>
<g fill="#3F51D4" fill-opacity="1.00" stroke="None">
<path d="
M 355.00 126.00 
C 355.74 123.28 357.10 119.38 354.00 117.00
C 354.98 119.75 355.37 122.96 355.00 126.00 Z"/>
</g>
<g fill="#3F51D4" fill-opacity="1.00" stroke="None">
<path d="
M 14.00 120.00 
C 15.00 118.47 20.02 118.50 21.00 120.00
C 19.77 117.18 15.24 117.14 14.00 120.00 Z"/>
</g>
<g fill="#EAEEEF" fill-opacity="1.00" stroke="None">
<path d="
M 14.00 120.00 
C 10.62 127.78 24.39 127.80 21.00 120.00
C 20.02 118.50 15.00 118.47 14.00 120.00 Z"/>
</g>
<g fill="#EAEEEF" fill-opacity="1.00" stroke="None">
<path d="
M 344.00 119.00 
C 338.72 117.74 337.31 125.70 342.30 126.64 C 347.30 127.59 348.02 119.96 344.00 119.00 Z"/>
</g>
<g fill="#3F51D4" fill-opacity="1.00" stroke="None">
<path d="
M 12.00 135.00 
C 7.27 132.71 6.14 126.92 4.00 123.00
C 3.61 128.12 7.26 133.23 12.00 135.00 Z"/>
</g>
<g fill="#3F51D4" fill-opacity="1.00" stroke="None">
<path d="
M 250.00 143.00 
C 251.40 136.67 251.33 131.53 250.00 125.00
C 250.56 131.32 250.63 136.84 250.00 143.00 Z"/>
</g>
<g fill="#3F51D4" fill-opacity="1.00" stroke="None">
<path d="
M 93.00 141.00 
C 93.29 138.63 93.94 131.36 92.00 130.00
C 90.87 133.47 93.07 138.30 93.00 141.00 Z"/>
</g>
<g fill="#3F51D4" fill-opacity="1.00" stroke="None">
<path d="
M 267.00 146.00 
C 267.32 140.64 268.56 135.57 268.00 130.00
C 266.47 131.07 265.42 144.92 267.00 146.00 Z"/>
</g>
<g fill="#3F51D4" fill-opacity="1.00" stroke="None">
<path d="
M 110.00 141.00 
C 110.00 137.77 109.04 133.50 109.00 131.00
C 108.72 134.57 109.36 138.09 110.00 141.00 Z"/>
</g>
<g fill="#3F51D4" fill-opacity="1.00" stroke="None">
<path d="
M 170.00 144.00 
C 171.32 141.93 174.63 138.05 177.00 137.00
C 174.06 138.01 170.64 140.71 170.00 144.00 Z"/>
</g>
<g fill="#3F51D4" fill-opacity="1.00" stroke="None">
<path d="
M 241.00 141.00 
C 239.53 141.27 240.11 143.00 240.00 144.00
C 233.55 144.54 227.49 143.29 221.00 144.00 C 214.51 144.71 208.63 142.63 202.00 144.00 C 195.37 145.37 194.76 140.54 190.00 138.00
C 194.63 141.17 196.59 147.33 204.00 145.00 C 211.41 142.67 218.28 146.64 225.00 145.00 C 231.72 143.36 239.31 148.61 241.00 141.00 Z"/>
</g>
<g fill="#3F51D4" fill-opacity="1.00" stroke="None">
<path d="
M 112.00 151.00 
C 111.42 148.82 110.39 145.83 110.00 144.00
C 110.10 147.03 111.03 148.62 112.00 151.00 Z"/>
</g>
<g fill="#3F51D4" fill-opacity="1.00" stroke="None">
<path d="
M 170.00 154.00 
C 168.96 151.18 168.82 147.72 170.00 145.00
C 166.67 147.54 168.52 151.23 170.00 154.00 Z"/>
</g>
<g fill="#3F51D4" fill-opacity="1.00" stroke="None">
<path d="
M 184.00 145.00 
C 180.32 143.60 175.59 150.13 180.33 152.67 C 185.06 155.20 188.77 146.82 184.00 145.00 Z"/>
</g>
<g fill="#3F51D4" fill-opacity="1.00" stroke="None">
<path d="
M 306.00 151.00 
C 307.09 148.07 313.08 148.46 314.00 151.00
C 313.28 147.00 306.84 146.77 306.00 151.00 Z"/>
</g>
<g fill="#3F51D4" fill-opacity="1.00" stroke="None">
<path d="
M 318.00 164.00 
C 323.32 160.04 324.40 153.43 322.00 148.00
C 323.14 153.15 321.55 160.49 318.00 164.00 Z"/>
</g>
<g fill="#EAEEEF" fill-opacity="1.00" stroke="None">
<path d="
M 54.00 149.00 
C 49.60 148.21 47.13 155.52 51.99 156.99 C 56.86 158.46 59.02 149.90 54.00 149.00 Z"/>
</g>
<g fill="#EAEEEF" fill-opacity="1.00" stroke="None">
<path d="
M 306.00 151.00 
C 304.80 157.04 315.18 157.61 314.00 151.00
C 313.08 148.46 307.09 148.07 306.00 151.00 Z"/>
</g>
<g fill="#3F51D4" fill-opacity="1.00" stroke="None">
<path d="
M 128.00 163.00 
C 126.47 159.94 124.44 156.85 123.00 154.00
C 124.32 157.57 126.11 159.98 128.00 163.00 Z"/>
</g>
<g fill="#3F51D4" fill-opacity="1.00" stroke="None">
<path d="
M 306.00 166.00 
C 303.32 164.93 300.92 160.87 298.00 160.00
C 300.64 160.97 302.61 164.94 306.00 166.00 Z"/>
</g>
<g fill="#3F51D4" fill-opacity="1.00" stroke="None">
<path d="
M 221.00 179.00 
C 226.50 176.31 231.21 168.05 234.00 163.00
C 230.25 168.42 224.95 173.34 221.00 179.00 Z"/>
</g>
<g fill="#3F51D4" fill-opacity="1.00" stroke="None">
<path d="
M 239.00 172.00 
C 240.89 169.62 242.79 168.11 244.00 165.00
C 242.97 167.08 240.42 169.75 239.00 172.00 Z"/>
</g>
<g fill="#3F51D4" fill-opacity="1.00" stroke="None">
<path d="
M 135.00 171.00 
C 139.13 171.91 142.25 170.53 146.00 173.00
C 141.65 169.17 139.53 171.58 135.00 171.00 Z"/>
</g>
<g fill="#3F51D4" fill-opacity="1.00" stroke="None">
<path d="
M 224.00 189.00 
C 228.34 186.31 234.28 180.40 237.00 176.00
C 234.26 179.73 227.78 186.22 224.00 189.00 Z"/>
</g>
<g fill="#3F51D4" fill-opacity="1.00" stroke="None">
<path d="
M 110.00 185.00 
C 108.25 182.11 105.81 179.62 104.00 177.00
C 105.75 180.17 107.89 182.25 110.00 185.00 Z"/>
</g>
<g fill="#3F51D4" fill-opacity="1.00" stroke="None">
<path d="
M 211.00 186.00 
C 214.47 184.09 217.63 182.39 220.00 179.00
C 217.03 181.27 213.92 183.98 211.00 186.00 Z"/>
</g>
<g fill="#3F51D4" fill-opacity="1.00" stroke="None">
<path d="
M 126.00 187.00 
C 125.59 184.84 126.02 182.21 126.00 180.00
C 125.74 182.52 125.03 184.21 126.00 187.00 Z"/>
</g>
<g fill="#3F51D4" fill-opacity="1.00" stroke="None">
<path d="
M 141.00 180.00 
C 134.93 177.28 133.30 185.48 137.75 187.20 C 142.21 188.91 144.10 181.39 141.00 180.00 Z"/>
</g>
<g fill="#3F51D4" fill-opacity="1.00" stroke="None">
<path d="
M 185.00 193.00 
C 183.42 190.74 180.67 187.17 178.00 186.00
C 180.77 187.45 181.97 192.11 185.00 193.00 Z"/>
</g>
<g fill="#3F51D4" fill-opacity="1.00" stroke="None">
<path d="
M 121.00 198.00 
C 118.57 195.37 116.55 193.40 114.00 191.00
C 116.15 193.51 118.44 195.81 121.00 198.00 Z"/>
</g>
<g fill="#3F51D4" fill-opacity="1.00" stroke="None">
<path d="
M 208.00 198.00 
C 212.95 196.56 216.14 194.07 220.00 191.00
C 216.31 193.34 211.84 196.42 208.00 198.00 Z"/>
</g>
<g fill="#3F51D4" fill-opacity="1.00" stroke="None">
<path d="
M 239.00 198.00 
C 241.51 195.85 243.81 193.56 246.00 191.00
C 243.79 193.21 241.26 195.74 239.00 198.00 Z"/>
</g>
<g fill="#3F51D4" fill-opacity="1.00" stroke="None">
<path d="
M 186.00 193.00 
C 188.65 193.25 191.02 192.35 193.00 192.00
C 190.41 192.24 187.99 191.53 186.00 193.00 Z"/>
</g>
<g fill="#3F51D4" fill-opacity="1.00" stroke="None">
<path d="
M 159.00 202.00 
C 158.60 199.97 158.54 196.01 159.00 194.00
C 157.93 196.84 157.84 199.11 159.00 202.00 Z"/>
</g>
<g fill="#003AF7" fill-opacity="1.00" stroke="None">
<path d="
M 173.00 194.00 
C 168.68 192.35 165.91 199.88 170.32 201.66 C 174.74 203.44 176.83 195.46 173.00 194.00 Z"/>
</g>
<g fill="#3F51D4" fill-opacity="1.00" stroke="None">
<path d="
M 183.00 204.00 
C 184.47 202.81 188.54 202.32 190.00 202.00
C 187.69 202.29 183.90 200.97 183.00 204.00 Z"/>
</g>
<g fill="#3F51D4" fill-opacity="1.00" stroke="None">
<path d="
M 222.00 210.00 
C 225.97 207.97 228.60 205.61 232.00 203.00
C 228.52 205.11 225.24 207.93 222.00 210.00 Z"/>
</g>
<g fill="#3F51D4" fill-opacity="1.00" stroke="None">
<path d="
M 168.00 211.00 
C 166.37 210.64 161.08 206.72 160.00 205.00
C 161.40 207.95 164.90 210.53 168.00 211.00 Z"/>
</g>
<g fill="#3F51D4" fill-opacity="1.00" stroke="None">
<path d="
M 174.00 211.00 
C 177.68 210.62 181.25 208.59 183.00 205.00
C 180.23 206.93 177.20 210.41 174.00 211.00 Z"/>
</g>
<g fill="#3F51D4" fill-opacity="1.00" stroke="None">
<path d="
M 208.00 216.00 
C 210.55 215.13 212.77 214.02 215.00 213.00
C 212.42 213.86 210.25 214.95 208.00 216.00 Z"/>
</g>
<g fill="#3F51D4" fill-opacity="1.00" stroke="None">
<path d="
M 155.00 217.00 
C 152.53 215.97 149.77 214.89 147.00 214.00
C 149.51 215.10 152.16 216.14 155.00 217.00 Z"/>
</g>
<g fill="#3F51D4" fill-opacity="1.00" stroke="None">
<path d="
M 187.00 220.00 
C 182.33 220.00 177.67 220.00 173.00 220.00
C 177.34 220.42 182.60 220.43 187.00 220.00 Z"/>
</g>
<g fill="#000809" fill-opacity="1.00" stroke="None">
<path d="
M 30.00 254.00 
C 31.66 255.06 35.17 253.20 37.00 254.00
C 37.00 250.00 37.00 246.00 37.00 242.00
C 42.00 244.18 43.53 251.53 48.00 254.00
C 49.11 254.41 56.08 254.64 57.00 254.00
C 57.97 247.80 62.05 231.19 50.00 235.00
C 50.00 239.00 50.00 243.00 50.00 247.00
C 42.73 243.26 39.83 231.12 29.00 235.00
C 30.81 239.99 26.15 250.15 30.00 254.00 Z"/>
</g>
<g fill="#000809" fill-opacity="1.00" stroke="None">
<path d="
M 70.00 254.00 
C 75.33 254.11 80.67 253.92 86.00 254.00
C 86.00 252.67 86.00 251.33 86.00 250.00
C 81.50 248.65 71.54 253.07 71.00 247.00
C 74.96 245.99 84.31 249.87 83.00 243.00
C 79.34 241.90 70.77 245.68 71.00 240.00
C 75.80 238.87 86.89 243.40 85.00 235.00
C 77.67 235.00 70.33 235.00 63.00 235.00
C 63.00 241.33 63.00 247.67 63.00 254.00
C 65.33 254.03 67.67 253.95 70.00 254.00 Z"/>
</g>
<g fill="#000809" fill-opacity="1.00" stroke="None">
<path d="
M 93.00 250.00 
C 91.93 251.17 90.85 252.71 90.00 254.00
C 92.00 254.00 94.00 254.00 96.00 254.00
C 98.70 253.02 99.85 248.96 103.00 249.00
C 105.17 253.75 110.20 254.76 115.00 254.00
C 112.68 250.24 108.38 247.80 106.00 244.00
C 109.31 241.56 112.46 238.30 115.00 235.00
C 109.12 233.26 105.92 237.74 102.00 241.00
C 99.41 236.16 94.47 233.80 89.00 235.00
C 91.18 239.13 96.91 241.37 98.00 246.00
C 96.32 247.14 94.58 248.65 93.00 250.00 Z"/>
</g>
<g fill="#000809" fill-opacity="1.00" stroke="None">
<path d="
M 119.00 236.00 
C 118.04 237.38 118.80 244.24 119.00 246.00
C 118.71 255.73 132.66 256.88 138.92 252.92 C 145.18 248.96 146.31 230.85 135.00 235.00
C 138.33 241.45 131.40 257.22 127.00 246.00
C 126.18 243.91 127.22 237.75 126.00 236.00
C 124.46 234.46 120.56 234.44 119.00 236.00 Z"/>
</g>
<g fill="#000809" fill-opacity="1.00" stroke="None">
<path d="
M 169.00 241.00 
C 165.77 235.29 156.25 230.67 149.25 237.25 C 142.25 243.82 155.38 248.61 161.00 249.00
C 156.02 251.43 152.55 246.42 147.00 248.00
C 148.96 254.97 160.49 258.82 167.25 252.25 C 174.00 245.67 160.88 241.11 155.00 241.00
C 159.34 238.86 164.10 242.19 169.00 241.00 Z"/>
</g>
<g fill="#000809" fill-opacity="1.00" stroke="None">
<path d="
M 188.00 254.00 
C 190.67 254.00 193.33 254.00 196.00 254.00
C 196.00 249.33 196.00 244.67 196.00 240.00
C 199.92 240.49 204.74 240.33 203.00 235.00
C 196.12 234.76 192.17 235.32 185.00 235.00 C 177.83 234.68 181.07 242.77 188.00 240.00
C 189.64 243.52 185.81 250.87 188.00 254.00 Z"/>
</g>
<g fill="#000809" fill-opacity="1.00" stroke="None">
<path d="
M 225.00 235.00 
C 208.74 231.63 200.25 247.84 215.78 254.22 C 231.31 260.60 240.30 238.17 225.00 235.00
M 223.00 240.00 
C 228.39 242.63 223.80 252.58 217.78 249.22 C 211.76 245.86 216.65 236.90 223.00 240.00 Z"/>
</g>
<g fill="#000809" fill-opacity="1.00" stroke="None">
<path d="
M 255.00 235.00 
C 238.74 231.63 230.25 247.84 245.78 254.22 C 261.31 260.60 270.30 238.17 255.00 235.00
M 253.00 240.00 
C 258.39 242.63 253.80 252.58 247.78 249.22 C 241.76 245.86 246.65 236.90 253.00 240.00 Z"/>
</g>
<g fill="#000809" fill-opacity="1.00" stroke="None">
<path d="
M 268.00 254.00 
C 275.33 254.00 282.67 254.00 290.00 254.00
C 290.00 252.67 290.00 251.33 290.00 250.00
C 285.33 250.00 280.67 250.00 276.00 250.00
C 275.84 243.54 278.57 231.86 268.00 235.00
C 270.23 239.77 265.02 249.75 268.00 254.00 Z"/>
</g>
<g fill="#000809" fill-opacity="1.00" stroke="None">
<path d="
M 316.00 241.00 
C 312.29 235.42 302.47 230.55 295.25 237.25 C 288.04 243.96 302.95 248.66 308.00 249.00
C 302.51 250.58 298.73 247.21 293.00 249.00
C 297.33 254.69 306.71 258.82 313.75 252.75 C 320.78 246.67 307.49 240.64 302.00 241.00
C 305.84 238.61 311.22 242.35 316.00 241.00 Z"/>
</g>
<g fill="#3F51D4" fill-opacity="1.00" stroke="None">
<path d="
M 119.00 246.00 
C 118.80 244.24 118.04 237.38 119.00 236.00
C 116.59 238.41 118.41 243.47 119.00 246.00 Z"/>
</g>
<g fill="#3F51D4" fill-opacity="1.00" stroke="None">
<path d="
M 127.00 246.00 
C 126.26 242.92 128.32 238.32 126.00 236.00
C 127.22 237.75 126.18 243.91 127.00 246.00 Z"/>
</g>
<g fill="#EAEEEF" fill-opacity="1.00" stroke="None">
<path d="
M 223.00 240.00 
C 216.65 236.90 211.76 245.86 217.78 249.22 C 223.80 252.58 228.39 242.63 223.00 240.00 Z"/>
</g>
<g fill="#EAEEEF" fill-opacity="1.00" stroke="None">
<path d="
M 253.00 240.00 
C 246.65 236.90 241.76 245.86 247.78 249.22 C 253.80 252.58 258.39 242.63 253.00 240.00 Z"/>
</g>
<g fill="#3F51D4" fill-opacity="1.00" stroke="None">
<path d="
M 96.00 254.00 
C 94.00 254.00 92.00 254.00 90.00 254.00
C 90.85 252.71 91.93 251.17 93.00 250.00
C 91.29 251.01 88.95 252.78 89.00 255.00
C 91.57 255.37 94.06 254.91 96.00 254.00 Z"/>
</g>
<g fill="#3F51D4" fill-opacity="1.00" stroke="None">
<path d="
M 37.00 254.00 
C 35.17 253.20 31.66 255.06 30.00 254.00
C 31.34 255.34 35.73 255.82 37.00 254.00 Z"/>
</g>
<g fill="#3F51D4" fill-opacity="1.00" stroke="None">
<path d="
M 57.00 254.00 
C 56.08 254.64 49.11 254.41 48.00 254.00
C 50.05 255.13 54.98 256.02 57.00 254.00 Z"/>
</g>
<g fill="#3F51D4" fill-opacity="1.00" stroke="None">
<path d="
M 86.00 254.00 
C 80.67 253.92 75.33 254.11 70.00 254.00
C 72.43 254.29 84.11 257.27 86.00 254.00 Z"/>
</g>
<g fill="#3F51D4" fill-opacity="1.00" stroke="None">
<path d="
M 196.00 254.00 
C 193.33 254.00 190.67 254.00 188.00 254.00
C 189.15 255.64 194.83 255.67 196.00 254.00 Z"/>
</g>
<g fill="#3F51D4" fill-opacity="1.00" stroke="None">
<path d="
M 290.00 254.00 
C 282.67 254.00 275.33 254.00 268.00 254.00
C 269.40 256.00 288.72 256.22 290.00 254.00 Z"/>
</g>
<g fill="#000809" fill-opacity="1.00" stroke="None">
<path d="
M 55.00 286.00 
C 71.50 290.68 72.23 263.11 55.00 269.00
C 55.00 274.67 55.00 280.33 55.00 286.00
M 57.00 283.00 
C 55.17 281.17 55.22 272.78 57.00 271.00
C 68.00 260.00 68.03 294.03 57.00 283.00 Z"/>
</g>
<g fill="#000809" fill-opacity="1.00" stroke="None">
<path d="
M 74.00 285.00 
C 75.70 280.81 75.61 273.26 74.00 269.00
C 72.30 273.19 72.39 280.74 74.00 285.00 Z"/>
</g>
<g fill="#000809" fill-opacity="1.00" stroke="None">
<path d="
M 94.00 273.00 
C 92.49 268.12 84.55 267.12 81.26 271.26 C 77.97 275.40 78.53 280.71 82.78 284.22 C 87.02 287.74 91.28 282.12 94.00 285.00
C 95.33 280.76 94.02 274.92 88.00 277.00
C 99.54 277.98 84.99 289.68 81.33 280.67 C 77.67 271.66 88.50 266.93 94.00 273.00 Z"/>
</g>
<g fill="#000809" fill-opacity="1.00" stroke="None">
<path d="
M 100.00 285.00 
C 101.70 280.81 101.61 273.26 100.00 269.00
C 98.30 273.19 98.39 280.74 100.00 285.00 Z"/>
</g>
<g fill="#000809" fill-opacity="1.00" stroke="None">
<path d="
M 117.00 269.00 
C 113.00 269.00 109.00 269.00 105.00 269.00
C 113.76 269.00 107.79 280.02 111.00 285.00
C 114.27 280.21 108.20 268.89 117.00 269.00 Z"/>
</g>
<g fill="#000809" fill-opacity="1.00" stroke="None">
<path d="
M 134.00 285.00 
C 130.63 280.16 131.47 271.43 126.00 269.00
C 123.90 274.33 122.37 279.77 120.00 285.00
C 123.42 279.84 130.63 279.87 134.00 285.00
M 130.00 280.00 
C 122.66 282.34 124.15 275.54 127.00 272.00
C 128.62 274.10 129.27 277.29 130.00 280.00 Z"/>
</g>
<g fill="#000809" fill-opacity="1.00" stroke="None">
<path d="
M 148.00 284.00 
C 136.22 287.68 141.74 274.80 139.00 269.00
C 136.69 273.34 138.65 279.84 138.00 285.00
C 141.18 284.47 145.57 286.13 148.00 284.00 Z"/>
</g>
<g fill="#000809" fill-opacity="1.00" stroke="None">
<path d="
M 160.00 285.00 
C 161.82 283.43 160.29 280.71 162.00 279.00
C 173.75 280.00 171.92 265.15 160.00 269.00
C 161.55 273.60 157.93 280.65 160.00 285.00
M 162.00 277.00 
C 160.38 275.93 160.39 271.06 162.00 270.00
C 170.22 264.59 170.21 282.41 162.00 277.00 Z"/>
</g>
<g fill="#000809" fill-opacity="1.00" stroke="None">
<path d="
M 182.00 278.00 
C 190.96 274.83 181.88 265.62 175.00 269.00
C 175.61 274.18 173.75 280.58 176.00 285.00
C 176.72 274.53 181.00 280.22 185.00 285.00
C 184.75 282.39 182.97 280.37 182.00 278.00
M 177.00 277.00 
C 174.25 261.12 192.89 278.95 177.00 277.00 Z"/>
</g>
<g fill="#000809" fill-opacity="1.00" stroke="None">
<path d="
M 202.00 269.00 
C 191.16 265.39 185.13 279.88 194.93 285.07 C 204.73 290.27 211.10 272.03 202.00 269.00
M 200.00 270.00 
C 207.80 271.70 203.94 287.13 196.00 284.00 C 188.06 280.87 192.21 268.30 200.00 270.00 Z"/>
</g>
<g fill="#000809" fill-opacity="1.00" stroke="None">
<path d="
M 211.00 285.00 
C 227.99 291.46 227.90 262.75 211.00 269.00
C 211.00 274.33 211.00 279.67 211.00 285.00
M 213.00 284.00 
C 211.09 282.72 211.15 271.24 213.00 270.00
C 224.47 262.30 224.47 291.70 213.00 284.00 Z"/>
</g>
<g fill="#3F51D4" fill-opacity="1.00" stroke="None">
<path d="
M 229.00 281.00 
C 228.05 277.24 229.71 272.82 229.00 269.00
C 227.04 271.96 227.75 277.93 229.00 281.00 Z"/>
</g>
<g fill="#000809" fill-opacity="1.00" stroke="None">
<path d="
M 229.00 281.00 
C 234.78 293.67 246.24 276.64 240.00 269.00
C 237.35 272.61 241.89 284.71 234.03 283.97 C 226.16 283.24 232.65 272.58 229.00 269.00
C 229.71 272.82 228.05 277.24 229.00 281.00 Z"/>
</g>
<g fill="#000809" fill-opacity="1.00" stroke="None">
<path d="
M 260.00 273.00 
C 255.96 264.66 244.03 269.89 245.03 277.97 C 246.02 286.06 256.43 288.57 260.00 281.00
C 255.25 285.16 246.79 285.21 247.01 277.01 C 247.23 268.80 255.08 268.81 260.00 273.00 Z"/>
</g>
<g fill="#000809" fill-opacity="1.00" stroke="None">
<path d="
M 275.00 269.00 
C 271.00 269.00 267.00 269.00 263.00 269.00
C 271.76 269.00 265.79 280.02 269.00 285.00
C 272.27 280.21 266.20 268.89 275.00 269.00 Z"/>
</g>
<g fill="#000809" fill-opacity="1.00" stroke="None">
<path d="
M 289.00 273.00 
C 289.76 261.61 271.47 274.53 281.98 277.02 C 292.48 279.52 285.44 287.73 279.00 281.00
C 277.61 292.06 296.75 281.41 288.23 277.77 C 279.71 274.13 280.17 267.38 289.00 273.00 Z"/>
</g>
<g fill="#EAEEEF" fill-opacity="1.00" stroke="None">
<path d="
M 57.00 271.00 
C 56.36 271.94 56.36 282.06 57.00 283.00
C 68.03 294.03 68.00 260.00 57.00 271.00 Z"/>
</g>
<g fill="#3F51D4" fill-opacity="1.00" stroke="None">
<path d="
M 162.00 277.00 
C 162.00 274.67 162.00 272.33 162.00 270.00
C 160.39 271.06 160.38 275.93 162.00 277.00 Z"/>
</g>
<g fill="#EAEEEF" fill-opacity="1.00" stroke="None">
<path d="
M 162.00 277.00 
C 170.21 282.41 170.22 264.59 162.00 270.00
C 162.00 272.33 162.00 274.67 162.00 277.00 Z"/>
</g>
<g fill="#EAEEEF" fill-opacity="1.00" stroke="None">
<path d="
M 177.00 277.00 
C 192.89 278.95 174.25 261.12 177.00 277.00 Z"/>
</g>
<g fill="#EAEEEF" fill-opacity="1.00" stroke="None">
<path d="
M 200.00 270.00 
C 192.21 268.30 188.06 280.87 196.00 284.00 C 203.94 287.13 207.80 271.70 200.00 270.00 Z"/>
</g>
<g fill="#3F51D4" fill-opacity="1.00" stroke="None">
<path d="
M 213.00 284.00 
C 213.00 279.33 213.00 274.67 213.00 270.00
C 211.15 271.24 211.09 282.72 213.00 284.00 Z"/>
</g>
<g fill="#EAEEEF" fill-opacity="1.00" stroke="None">
<path d="
M 213.00 284.00 
C 224.47 291.70 224.47 262.30 213.00 270.00
C 213.00 274.67 213.00 279.33 213.00 284.00 Z"/>
</g>
<g fill="#3F51D4" fill-opacity="1.00" stroke="None">
<path d="
M 57.00 283.00 
C 56.36 282.06 56.36 271.94 57.00 271.00
C 55.22 272.78 55.17 281.17 57.00 283.00 Z"/>
</g>
<g fill="#EAEEEF" fill-opacity="1.00" stroke="None">
<path d="
M 130.00 280.00 
C 129.27 277.29 128.62 274.10 127.00 272.00
C 124.15 275.54 122.66 282.34 130.00 280.00 Z"/>
</g>
<g fill="#3F51D4" fill-opacity="1.00" stroke="None">
<path d="
M 160.00 285.00 
C 161.66 288.49 162.07 278.91 162.00 279.00
C 160.29 280.71 161.82 283.43 160.00 285.00 Z"/>
</g>
</svg>